<svg xmlns="http://www.w3.org/2000/svg" viewBox="0 0 560 260" width="560" height="260" font-family="ui-sans-serif, system-ui, -apple-system, 'Segoe UI', sans-serif"><defs><marker id="f8b93a1" viewBox="0 0 10 10" refX="9" refY="5" markerWidth="7" markerHeight="7" orient="auto-start-reverse"><path d="M0,0 L10,5 L0,10 z" fill="#8b93a1"/></marker><marker id="f3b82f6" viewBox="0 0 10 10" refX="9" refY="5" markerWidth="7" markerHeight="7" orient="auto-start-reverse"><path d="M0,0 L10,5 L0,10 z" fill="#3b82f6"/></marker><marker id="fef4444" viewBox="0 0 10 10" refX="9" refY="5" markerWidth="7" markerHeight="7" orient="auto-start-reverse"><path d="M0,0 L10,5 L0,10 z" fill="#ef4444"/></marker><marker id="f22c55e" viewBox="0 0 10 10" refX="9" refY="5" markerWidth="7" markerHeight="7" orient="auto-start-reverse"><path d="M0,0 L10,5 L0,10 z" fill="#22c55e"/></marker><marker id="ff59e0b" viewBox="0 0 10 10" refX="9" refY="5" markerWidth="7" markerHeight="7" orient="auto-start-reverse"><path d="M0,0 L10,5 L0,10 z" fill="#f59e0b"/></marker><marker id="fa855f7" viewBox="0 0 10 10" refX="9" refY="5" markerWidth="7" markerHeight="7" orient="auto-start-reverse"><path d="M0,0 L10,5 L0,10 z" fill="#a855f7"/></marker><marker id="fec4899" viewBox="0 0 10 10" refX="9" refY="5" markerWidth="7" markerHeight="7" orient="auto-start-reverse"><path d="M0,0 L10,5 L0,10 z" fill="#ec4899"/></marker><marker id="f14b8a6" viewBox="0 0 10 10" refX="9" refY="5" markerWidth="7" markerHeight="7" orient="auto-start-reverse"><path d="M0,0 L10,5 L0,10 z" fill="#14b8a6"/></marker><marker id="fc4c9d4" viewBox="0 0 10 10" refX="9" refY="5" markerWidth="7" markerHeight="7" orient="auto-start-reverse"><path d="M0,0 L10,5 L0,10 z" fill="#c4c9d4"/></marker></defs><line x1="30.0" y1="130.0" x2="538.0" y2="130.0" stroke="#8b93a1" stroke-width="2" stroke-linecap="round" marker-end="url(#f8b93a1)"/><line x1="94.0" y1="256.0" x2="94.0" y2="6.0" stroke="#8b93a1" stroke-width="2" stroke-linecap="round" marker-end="url(#f8b93a1)"/><text x="546.0" y="144.0" fill="#8b93a1" font-size="18" text-anchor="middle" dominant-baseline="middle" font-family="'Times New Roman', 'STIX Two Math', Georgia, serif" font-style="italic">x</text><text x="108.0" y="12.0" fill="#8b93a1" font-size="18" text-anchor="middle" dominant-baseline="middle" font-family="'Times New Roman', 'STIX Two Math', Georgia, serif" font-style="italic">y</text><line x1="178.9" y1="125.0" x2="178.9" y2="135.0" stroke="#8b93a1" stroke-width="2" stroke-linecap="round"/><text x="178.9" y="150.0" fill="#8b93a1" font-size="15" text-anchor="middle" dominant-baseline="middle">π/2</text><line x1="263.8" y1="125.0" x2="263.8" y2="135.0" stroke="#8b93a1" stroke-width="2" stroke-linecap="round"/><text x="263.8" y="150.0" fill="#8b93a1" font-size="15" text-anchor="middle" dominant-baseline="middle">π</text><line x1="348.7" y1="125.0" x2="348.7" y2="135.0" stroke="#8b93a1" stroke-width="2" stroke-linecap="round"/><text x="348.7" y="150.0" fill="#8b93a1" font-size="15" text-anchor="middle" dominant-baseline="middle">3π/2</text><line x1="433.5" y1="125.0" x2="433.5" y2="135.0" stroke="#8b93a1" stroke-width="2" stroke-linecap="round"/><text x="433.5" y="150.0" fill="#8b93a1" font-size="15" text-anchor="middle" dominant-baseline="middle">2π</text><line x1="89.0" y1="54.3" x2="99.0" y2="54.3" stroke="#8b93a1" stroke-width="2" stroke-linecap="round"/><text x="82.0" y="54.3" fill="#8b93a1" font-size="15" text-anchor="end" dominant-baseline="middle">1</text><line x1="89.0" y1="205.7" x2="99.0" y2="205.7" stroke="#8b93a1" stroke-width="2" stroke-linecap="round"/><text x="82.0" y="205.7" fill="#8b93a1" font-size="15" text-anchor="end" dominant-baseline="middle">−1</text><defs><clipPath id="area"><rect x="0" y="10" width="560" height="240"/></clipPath></defs><g clip-path="url(#area)"><path d="M40.0,193.7 L40.5,193.3 L41.1,192.9 L41.6,192.5 L42.1,192.0 L42.7,191.6 L43.2,191.2 L43.7,190.7 L44.3,190.3 L44.8,189.8 L45.3,189.4 L45.9,188.9 L46.4,188.4 L46.9,188.0 L47.5,187.5 L48.0,187.0 L48.5,186.5 L49.1,186.0 L49.6,185.5 L50.1,185.0 L50.7,184.5 L51.2,183.9 L51.7,183.4 L52.3,182.9 L52.8,182.3 L53.3,181.8 L53.9,181.2 L54.4,180.7 L54.9,180.1 L55.5,179.6 L56.0,179.0 L56.5,178.4 L57.1,177.9 L57.6,177.3 L58.1,176.7 L58.7,176.1 L59.2,175.5 L59.7,174.9 L60.3,174.3 L60.8,173.7 L61.3,173.1 L61.9,172.5 L62.4,171.8 L62.9,171.2 L63.5,170.6 L64.0,170.0 L64.5,169.3 L65.1,168.7 L65.6,168.0 L66.1,167.4 L66.7,166.7 L67.2,166.1 L67.7,165.4 L68.3,164.8 L68.8,164.1 L69.3,163.4 L69.9,162.7 L70.4,162.1 L70.9,161.4 L71.5,160.7 L72.0,160.0 L72.5,159.3 L73.1,158.6 L73.6,158.0 L74.1,157.3 L74.7,156.6 L75.2,155.9 L75.7,155.2 L76.3,154.5 L76.8,153.7 L77.3,153.0 L77.9,152.3 L78.4,151.6 L78.9,150.9 L79.5,150.2 L80.0,149.4 L80.5,148.7 L81.1,148.0 L81.6,147.3 L82.1,146.5 L82.7,145.8 L83.2,145.1 L83.7,144.3 L84.3,143.6 L84.8,142.9 L85.3,142.1 L85.9,141.4 L86.4,140.7 L86.9,139.9 L87.5,139.2 L88.0,138.4 L88.5,137.7 L89.1,137.0 L89.6,136.2 L90.1,135.5 L90.7,134.7 L91.2,134.0 L91.7,133.2 L92.3,132.5 L92.8,131.7 L93.3,131.0 L93.9,130.2 L94.4,129.5" fill="none" stroke="#ef4444" stroke-width="1.6" stroke-dasharray="5 5" stroke-linejoin="round"/><path d="M94.4,129.5 L94.9,128.7 L95.5,128.0 L96.0,127.2 L96.5,126.5 L97.1,125.8 L97.6,125.0 L98.1,124.3 L98.7,123.5 L99.2,122.8 L99.7,122.0 L100.3,121.3 L100.8,120.5 L101.3,119.8 L101.9,119.1 L102.4,118.3 L102.9,117.6 L103.5,116.9 L104.0,116.1 L104.5,115.4 L105.1,114.6 L105.6,113.9 L106.1,113.2 L106.7,112.5 L107.2,111.7 L107.7,111.0 L108.3,110.3 L108.8,109.6 L109.3,108.8 L109.9,108.1 L110.4,107.4 L110.9,106.7 L111.5,106.0 L112.0,105.3 L112.5,104.6 L113.1,103.9 L113.6,103.2 L114.1,102.5 L114.7,101.8 L115.2,101.1 L115.7,100.4 L116.3,99.7 L116.8,99.0 L117.3,98.4 L117.9,97.7 L118.4,97.0 L118.9,96.3 L119.5,95.7 L120.0,95.0 L120.5,94.3 L121.1,93.7 L121.6,93.0 L122.1,92.4 L122.7,91.7 L123.2,91.1 L123.7,90.4 L124.3,89.8 L124.8,89.2 L125.3,88.6 L125.9,87.9 L126.4,87.3 L126.9,86.7 L127.5,86.1 L128.0,85.5 L128.5,84.9 L129.1,84.3 L129.6,83.7 L130.1,83.1 L130.7,82.5 L131.2,81.9 L131.7,81.4 L132.3,80.8 L132.8,80.2 L133.3,79.7 L133.9,79.1 L134.4,78.6 L134.9,78.0 L135.5,77.5 L136.0,76.9 L136.5,76.4 L137.1,75.9 L137.6,75.4 L138.1,74.8 L138.7,74.3 L139.2,73.8 L139.7,73.3 L140.3,72.8 L140.8,72.4 L141.3,71.9 L141.9,71.4 L142.4,70.9 L142.9,70.5 L143.5,70.0 L144.0,69.5 L144.5,69.1 L145.1,68.7 L145.6,68.2 L146.1,67.8 L146.7,67.4 L147.2,67.0 L147.7,66.5 L148.3,66.1 L148.8,65.7 L149.3,65.3 L149.9,65.0 L150.4,64.6 L150.9,64.2 L151.5,63.8 L152.0,63.5 L152.5,63.1 L153.1,62.8 L153.6,62.4 L154.1,62.1 L154.7,61.8 L155.2,61.5 L155.7,61.1 L156.3,60.8 L156.8,60.5 L157.3,60.2 L157.9,60.0 L158.4,59.7 L158.9,59.4 L159.5,59.1 L160.0,58.9 L160.5,58.6 L161.1,58.4 L161.6,58.1 L162.1,57.9 L162.7,57.7 L163.2,57.5 L163.7,57.3 L164.3,57.0 L164.8,56.9 L165.3,56.7 L165.9,56.5 L166.4,56.3 L166.9,56.1 L167.5,56.0 L168.0,55.8 L168.5,55.7 L169.1,55.5 L169.6,55.4 L170.1,55.3 L170.7,55.2 L171.2,55.1 L171.7,55.0 L172.3,54.9 L172.8,54.8 L173.3,54.7 L173.9,54.6 L174.4,54.5 L174.9,54.5 L175.5,54.4 L176.0,54.4 L176.5,54.4 L177.1,54.3 L177.6,54.3 L178.1,54.3 L178.7,54.3 L179.2,54.3 L179.7,54.3 L180.3,54.3 L180.8,54.3 L181.3,54.4 L181.9,54.4 L182.4,54.4 L182.9,54.5 L183.5,54.6 L184.0,54.6 L184.5,54.7 L185.1,54.8 L185.6,54.9 L186.1,55.0 L186.7,55.1 L187.2,55.2 L187.7,55.3 L188.3,55.4 L188.8,55.5 L189.3,55.7 L189.9,55.8 L190.4,56.0 L190.9,56.2 L191.5,56.3 L192.0,56.5 L192.5,56.7 L193.1,56.9 L193.6,57.1 L194.1,57.3 L194.7,57.5 L195.2,57.7 L195.7,57.9 L196.3,58.2 L196.8,58.4 L197.3,58.6 L197.9,58.9 L198.4,59.2 L198.9,59.4 L199.5,59.7 L200.0,60.0 L200.5,60.3 L201.1,60.6 L201.6,60.9 L202.1,61.2 L202.7,61.5 L203.2,61.8 L203.7,62.1 L204.3,62.5 L204.8,62.8 L205.3,63.2 L205.9,63.5 L206.4,63.9 L206.9,64.2 L207.5,64.6 L208.0,65.0 L208.5,65.4 L209.1,65.8 L209.6,66.2 L210.1,66.6 L210.7,67.0 L211.2,67.4 L211.7,67.8 L212.3,68.3 L212.8,68.7 L213.3,69.1 L213.9,69.6 L214.4,70.0 L214.9,70.5 L215.5,71.0 L216.0,71.4 L216.5,71.9 L217.1,72.4 L217.6,72.9 L218.1,73.4 L218.7,73.9 L219.2,74.4 L219.7,74.9 L220.3,75.4 L220.8,75.9 L221.3,76.4 L221.9,77.0 L222.4,77.5 L222.9,78.1 L223.5,78.6 L224.0,79.1 L224.5,79.7 L225.1,80.3 L225.6,80.8 L226.1,81.4 L226.7,82.0 L227.2,82.6 L227.7,83.1 L228.3,83.7 L228.8,84.3 L229.3,84.9 L229.9,85.5 L230.4,86.1 L230.9,86.7 L231.5,87.4 L232.0,88.0 L232.5,88.6 L233.1,89.2 L233.6,89.9 L234.1,90.5 L234.7,91.1 L235.2,91.8 L235.7,92.4 L236.3,93.1 L236.8,93.7 L237.3,94.4 L237.9,95.1 L238.4,95.7 L238.9,96.4 L239.5,97.1 L240.0,97.7 L240.5,98.4 L241.1,99.1 L241.6,99.8 L242.1,100.5 L242.7,101.2 L243.2,101.8 L243.7,102.5 L244.3,103.2 L244.8,103.9 L245.3,104.6 L245.9,105.3 L246.4,106.1 L246.9,106.8 L247.5,107.5 L248.0,108.2 L248.5,108.9 L249.1,109.6 L249.6,110.3 L250.1,111.1 L250.7,111.8 L251.2,112.5 L251.7,113.2 L252.3,114.0 L252.8,114.7 L253.3,115.4 L253.9,116.2 L254.4,116.9 L254.9,117.6 L255.5,118.4 L256.0,119.1 L256.5,119.9 L257.1,120.6 L257.6,121.3 L258.1,122.1 L258.7,122.8 L259.2,123.6 L259.7,124.3 L260.3,125.1 L260.8,125.8 L261.3,126.6 L261.9,127.3 L262.4,128.1 L262.9,128.8 L263.5,129.5 L264.0,130.3 L264.5,131.0 L265.1,131.8 L265.6,132.5 L266.1,133.3 L266.7,134.0 L267.2,134.8 L267.7,135.5 L268.3,136.3 L268.8,137.0 L269.3,137.8 L269.9,138.5 L270.4,139.2 L270.9,140.0 L271.5,140.7 L272.0,141.5 L272.5,142.2 L273.1,142.9 L273.6,143.7 L274.1,144.4 L274.7,145.1 L275.2,145.9 L275.7,146.6 L276.3,147.3 L276.8,148.1 L277.3,148.8 L277.9,149.5 L278.4,150.2 L278.9,150.9 L279.5,151.7 L280.0,152.4 L280.5,153.1 L281.1,153.8 L281.6,154.5 L282.1,155.2 L282.7,155.9 L283.2,156.6 L283.7,157.3 L284.3,158.0 L284.8,158.7 L285.3,159.4 L285.9,160.1 L286.4,160.8 L286.9,161.4 L287.5,162.1 L288.0,162.8 L288.5,163.5 L289.1,164.1 L289.6,164.8 L290.1,165.5 L290.7,166.1 L291.2,166.8 L291.7,167.4 L292.3,168.1 L292.8,168.7 L293.3,169.4 L293.9,170.0 L294.4,170.6 L294.9,171.3 L295.5,171.9 L296.0,172.5 L296.5,173.1 L297.1,173.7 L297.6,174.3 L298.1,174.9 L298.7,175.5 L299.2,176.1 L299.7,176.7 L300.3,177.3 L300.8,177.9 L301.3,178.5 L301.9,179.0 L302.4,179.6 L302.9,180.2 L303.5,180.7 L304.0,181.3 L304.5,181.8 L305.1,182.4 L305.6,182.9 L306.1,183.4 L306.7,184.0 L307.2,184.5 L307.7,185.0 L308.3,185.5 L308.8,186.0 L309.3,186.5 L309.9,187.0 L310.4,187.5 L310.9,188.0 L311.5,188.5 L312.0,188.9 L312.5,189.4 L313.1,189.9 L313.6,190.3 L314.1,190.8 L314.7,191.2 L315.2,191.7 L315.7,192.1 L316.3,192.5 L316.8,192.9 L317.3,193.3 L317.9,193.7 L318.4,194.1 L318.9,194.5 L319.5,194.9 L320.0,195.3 L320.5,195.7 L321.1,196.0 L321.6,196.4 L322.1,196.8 L322.7,197.1 L323.2,197.5 L323.7,197.8 L324.3,198.1 L324.8,198.4 L325.3,198.8 L325.9,199.1 L326.4,199.4 L326.9,199.7 L327.5,200.0 L328.0,200.2 L328.5,200.5 L329.1,200.8 L329.6,201.0 L330.1,201.3 L330.7,201.6 L331.2,201.8 L331.7,202.0 L332.3,202.3 L332.8,202.5 L333.3,202.7 L333.9,202.9 L334.4,203.1 L334.9,203.3 L335.5,203.5 L336.0,203.6 L336.5,203.8 L337.1,204.0 L337.6,204.1 L338.1,204.3 L338.7,204.4 L339.2,204.6 L339.7,204.7 L340.3,204.8 L340.8,204.9 L341.3,205.0 L341.9,205.1 L342.4,205.2 L342.9,205.3 L343.5,205.4 L344.0,205.4 L344.5,205.5 L345.1,205.5 L345.6,205.6 L346.1,205.6 L346.7,205.7 L347.2,205.7 L347.7,205.7 L348.3,205.7 L348.8,205.7 L349.3,205.7 L349.9,205.7 L350.4,205.7 L350.9,205.6 L351.5,205.6 L352.0,205.6 L352.5,205.5 L353.1,205.5 L353.6,205.4 L354.1,205.3 L354.7,205.2 L355.2,205.2 L355.7,205.1 L356.3,205.0 L356.8,204.9 L357.3,204.7 L357.9,204.6 L358.4,204.5 L358.9,204.4 L359.5,204.2 L360.0,204.1 L360.5,203.9 L361.1,203.7 L361.6,203.6 L362.1,203.4 L362.7,203.2 L363.2,203.0 L363.7,202.8 L364.3,202.6 L364.8,202.4 L365.3,202.1 L365.9,201.9 L366.4,201.7 L366.9,201.4 L367.5,201.2 L368.0,200.9 L368.5,200.7 L369.1,200.4 L369.6,200.1 L370.1,199.8 L370.7,199.5 L371.2,199.2 L371.7,198.9 L372.3,198.6 L372.8,198.3 L373.3,198.0 L373.9,197.6 L374.4,197.3 L374.9,196.9 L375.5,196.6 L376.0,196.2 L376.5,195.9 L377.1,195.5 L377.6,195.1 L378.1,194.7 L378.7,194.3 L379.2,193.9 L379.7,193.5 L380.3,193.1 L380.8,192.7 L381.3,192.3 L381.9,191.9 L382.4,191.4 L382.9,191.0 L383.5,190.5 L384.0,190.1 L384.5,189.6 L385.1,189.2 L385.6,188.7 L386.1,188.2 L386.7,187.8 L387.2,187.3 L387.7,186.8 L388.3,186.3 L388.8,185.8 L389.3,185.3 L389.9,184.8 L390.4,184.2 L390.9,183.7 L391.5,183.2 L392.0,182.6 L392.5,182.1 L393.1,181.6 L393.6,181.0 L394.1,180.5 L394.7,179.9 L395.2,179.3 L395.7,178.8 L396.3,178.2 L396.8,177.6 L397.3,177.0 L397.9,176.4 L398.4,175.8 L398.9,175.2 L399.5,174.6 L400.0,174.0 L400.5,173.4 L401.1,172.8 L401.6,172.2 L402.1,171.6 L402.7,170.9 L403.2,170.3 L403.7,169.7 L404.3,169.0 L404.8,168.4 L405.3,167.8 L405.9,167.1 L406.4,166.5 L406.9,165.8 L407.5,165.1 L408.0,164.5 L408.5,163.8 L409.1,163.1 L409.6,162.5 L410.1,161.8 L410.7,161.1 L411.2,160.4 L411.7,159.7 L412.3,159.1 L412.8,158.4 L413.3,157.7 L413.9,157.0 L414.4,156.3 L414.9,155.6 L415.5,154.9 L416.0,154.2 L416.5,153.4 L417.1,152.7 L417.6,152.0 L418.1,151.3 L418.7,150.6 L419.2,149.9 L419.7,149.1 L420.3,148.4 L420.8,147.7 L421.3,147.0 L421.9,146.2 L422.4,145.5 L422.9,144.8 L423.5,144.0 L424.0,143.3 L424.5,142.6 L425.1,141.8 L425.6,141.1 L426.1,140.4 L426.7,139.6 L427.2,138.9 L427.7,138.1 L428.3,137.4 L428.8,136.6 L429.3,135.9 L429.9,135.1 L430.4,134.4 L430.9,133.7 L431.5,132.9 L432.0,132.2 L432.5,131.4 L433.1,130.7 L433.6,129.9" fill="none" stroke="#ef4444" stroke-width="2.6" stroke-linejoin="round"/><path d="M433.6,129.9 L434.1,129.2 L434.7,128.4 L435.2,127.7 L435.7,126.9 L436.3,126.2 L436.8,125.4 L437.3,124.7 L437.9,124.0 L438.4,123.2 L438.9,122.5 L439.5,121.7 L440.0,121.0 L440.5,120.2 L441.1,119.5 L441.6,118.8 L442.1,118.0 L442.7,117.3 L443.2,116.5 L443.7,115.8 L444.3,115.1 L444.8,114.3 L445.3,113.6 L445.9,112.9 L446.4,112.2 L446.9,111.4 L447.5,110.7 L448.0,110.0 L448.5,109.3 L449.1,108.5 L449.6,107.8 L450.1,107.1 L450.7,106.4 L451.2,105.7 L451.7,105.0 L452.3,104.3 L452.8,103.6 L453.3,102.9 L453.9,102.2 L454.4,101.5 L454.9,100.8 L455.5,100.1 L456.0,99.4 L456.5,98.8 L457.1,98.1 L457.6,97.4 L458.1,96.7 L458.7,96.1 L459.2,95.4 L459.7,94.7 L460.3,94.1 L460.8,93.4 L461.3,92.8 L461.9,92.1 L462.4,91.5 L462.9,90.8 L463.5,90.2 L464.0,89.5 L464.5,88.9 L465.1,88.3 L465.6,87.7 L466.1,87.1 L466.7,86.4 L467.2,85.8 L467.7,85.2 L468.3,84.6 L468.8,84.0 L469.3,83.4 L469.9,82.9 L470.4,82.3 L470.9,81.7 L471.5,81.1 L472.0,80.6 L472.5,80.0 L473.1,79.4 L473.6,78.9 L474.1,78.3 L474.7,77.8 L475.2,77.2 L475.7,76.7 L476.3,76.2 L476.8,75.7 L477.3,75.1 L477.9,74.6 L478.4,74.1 L478.9,73.6 L479.5,73.1 L480.0,72.6 L480.5,72.1 L481.1,71.7 L481.6,71.2 L482.1,70.7 L482.7,70.3 L483.2,69.8 L483.7,69.4 L484.3,68.9 L484.8,68.5 L485.3,68.0 L485.9,67.6 L486.4,67.2 L486.9,66.8 L487.5,66.4 L488.0,66.0 L488.5,65.6 L489.1,65.2 L489.6,64.8 L490.1,64.4 L490.7,64.1 L491.2,63.7 L491.7,63.3 L492.3,63.0 L492.8,62.6 L493.3,62.3 L493.9,62.0 L494.4,61.6 L494.9,61.3 L495.5,61.0 L496.0,60.7 L496.5,60.4 L497.1,60.1 L497.6,59.8 L498.1,59.6 L498.7,59.3 L499.2,59.0 L499.7,58.8 L500.3,58.5 L500.8,58.3 L501.3,58.0 L501.9,57.8 L502.4,57.6 L502.9,57.4 L503.5,57.2 L504.0,57.0 L504.5,56.8 L505.1,56.6 L505.6,56.4 L506.1,56.2 L506.7,56.1 L507.2,55.9 L507.7,55.8 L508.3,55.6 L508.8,55.5 L509.3,55.4 L509.9,55.2 L510.4,55.1 L510.9,55.0 L511.5,54.9 L512.0,54.8 L512.5,54.7 L513.1,54.7 L513.6,54.6 L514.1,54.5 L514.7,54.5 L515.2,54.4 L515.7,54.4 L516.3,54.3 L516.8,54.3 L517.3,54.3 L517.9,54.3 L518.4,54.3 L518.9,54.3 L519.5,54.3 L520.0,54.3" fill="none" stroke="#ef4444" stroke-width="1.6" stroke-dasharray="5 5" stroke-linejoin="round"/></g><text x="470.0" y="30.0" fill="#ef4444" font-size="18" text-anchor="middle" dominant-baseline="middle" font-family="'Times New Roman', 'STIX Two Math', Georgia, serif" font-style="italic">y = sin x</text></svg>
