<svg xmlns="http://www.w3.org/2000/svg" viewBox="0 0 300 260" width="300" height="260" font-family="ui-sans-serif, system-ui, -apple-system, 'Segoe UI', sans-serif"><defs><marker id="f8b93a1" viewBox="0 0 10 10" refX="9" refY="5" markerWidth="7" markerHeight="7" orient="auto-start-reverse"><path d="M0,0 L10,5 L0,10 z" fill="#8b93a1"/></marker><marker id="f3b82f6" viewBox="0 0 10 10" refX="9" refY="5" markerWidth="7" markerHeight="7" orient="auto-start-reverse"><path d="M0,0 L10,5 L0,10 z" fill="#3b82f6"/></marker><marker id="fef4444" viewBox="0 0 10 10" refX="9" refY="5" markerWidth="7" markerHeight="7" orient="auto-start-reverse"><path d="M0,0 L10,5 L0,10 z" fill="#ef4444"/></marker><marker id="f22c55e" viewBox="0 0 10 10" refX="9" refY="5" markerWidth="7" markerHeight="7" orient="auto-start-reverse"><path d="M0,0 L10,5 L0,10 z" fill="#22c55e"/></marker><marker id="ff59e0b" viewBox="0 0 10 10" refX="9" refY="5" markerWidth="7" markerHeight="7" orient="auto-start-reverse"><path d="M0,0 L10,5 L0,10 z" fill="#f59e0b"/></marker><marker id="fa855f7" viewBox="0 0 10 10" refX="9" refY="5" markerWidth="7" markerHeight="7" orient="auto-start-reverse"><path d="M0,0 L10,5 L0,10 z" fill="#a855f7"/></marker><marker id="fec4899" viewBox="0 0 10 10" refX="9" refY="5" markerWidth="7" markerHeight="7" orient="auto-start-reverse"><path d="M0,0 L10,5 L0,10 z" fill="#ec4899"/></marker><marker id="f14b8a6" viewBox="0 0 10 10" refX="9" refY="5" markerWidth="7" markerHeight="7" orient="auto-start-reverse"><path d="M0,0 L10,5 L0,10 z" fill="#14b8a6"/></marker><marker id="fc4c9d4" viewBox="0 0 10 10" refX="9" refY="5" markerWidth="7" markerHeight="7" orient="auto-start-reverse"><path d="M0,0 L10,5 L0,10 z" fill="#c4c9d4"/></marker></defs><line x1="23.0" y1="130.0" x2="257.0" y2="130.0" stroke="#8b93a1" stroke-width="2" stroke-linecap="round" marker-end="url(#f8b93a1)"/><line x1="140.0" y1="247.0" x2="140.0" y2="13.0" stroke="#8b93a1" stroke-width="2" stroke-linecap="round" marker-end="url(#f8b93a1)"/><text x="261.0" y="144.0" fill="#8b93a1" font-size="18" text-anchor="middle" dominant-baseline="middle" font-family="'Times New Roman', 'STIX Two Math', Georgia, serif" font-style="italic">x</text><text x="154.0" y="11.0" fill="#8b93a1" font-size="18" text-anchor="middle" dominant-baseline="middle" font-family="'Times New Roman', 'STIX Two Math', Georgia, serif" font-style="italic">y</text><circle cx="140" cy="130" r="90" fill="none" stroke="#8b93a1" stroke-width="2"/><line x1="140.0" y1="130.0" x2="230.0" y2="78.0" stroke="#f59e0b" stroke-width="2.5" stroke-linecap="round"/><line x1="140.0" y1="130.0" x2="217.9" y2="130.0" stroke="#3b82f6" stroke-width="3.5" stroke-linecap="round"/><line x1="217.9" y1="85.0" x2="217.9" y2="130.0" stroke="#ef4444" stroke-width="3.5" stroke-linecap="round"/><line x1="230.0" y1="130.0" x2="230.0" y2="78.0" stroke="#22c55e" stroke-width="3.5" stroke-linecap="round"/><path d="M166.0,130.0 A26,26 0 0 0 162.5,117.0" fill="none" stroke="#f59e0b" stroke-width="2"/><text x="178.0" y="121.0" fill="#f59e0b" font-size="13" text-anchor="middle" dominant-baseline="middle">30°</text><text x="179.0" y="148.0" fill="#3b82f6" font-size="15" text-anchor="middle" dominant-baseline="middle">√3/2</text><text x="231.9" y="118.0" fill="#ef4444" font-size="14" text-anchor="start" dominant-baseline="middle">1/2</text><text x="238.0" y="70.0" fill="#22c55e" font-size="15" text-anchor="start" dominant-baseline="middle">√3/3</text></svg>
