<svg xmlns="http://www.w3.org/2000/svg" viewBox="0 0 380 240" width="380" height="240" font-family="ui-sans-serif, system-ui, -apple-system, 'Segoe UI', sans-serif"><defs><marker id="f8b93a1" viewBox="0 0 10 10" refX="9" refY="5" markerWidth="7" markerHeight="7" orient="auto-start-reverse"><path d="M0,0 L10,5 L0,10 z" fill="#8b93a1"/></marker><marker id="f3b82f6" viewBox="0 0 10 10" refX="9" refY="5" markerWidth="7" markerHeight="7" orient="auto-start-reverse"><path d="M0,0 L10,5 L0,10 z" fill="#3b82f6"/></marker><marker id="fef4444" viewBox="0 0 10 10" refX="9" refY="5" markerWidth="7" markerHeight="7" orient="auto-start-reverse"><path d="M0,0 L10,5 L0,10 z" fill="#ef4444"/></marker><marker id="f22c55e" viewBox="0 0 10 10" refX="9" refY="5" markerWidth="7" markerHeight="7" orient="auto-start-reverse"><path d="M0,0 L10,5 L0,10 z" fill="#22c55e"/></marker><marker id="ff59e0b" viewBox="0 0 10 10" refX="9" refY="5" markerWidth="7" markerHeight="7" orient="auto-start-reverse"><path d="M0,0 L10,5 L0,10 z" fill="#f59e0b"/></marker><marker id="fa855f7" viewBox="0 0 10 10" refX="9" refY="5" markerWidth="7" markerHeight="7" orient="auto-start-reverse"><path d="M0,0 L10,5 L0,10 z" fill="#a855f7"/></marker><marker id="fec4899" viewBox="0 0 10 10" refX="9" refY="5" markerWidth="7" markerHeight="7" orient="auto-start-reverse"><path d="M0,0 L10,5 L0,10 z" fill="#ec4899"/></marker><marker id="f14b8a6" viewBox="0 0 10 10" refX="9" refY="5" markerWidth="7" markerHeight="7" orient="auto-start-reverse"><path d="M0,0 L10,5 L0,10 z" fill="#14b8a6"/></marker><marker id="fc4c9d4" viewBox="0 0 10 10" refX="9" refY="5" markerWidth="7" markerHeight="7" orient="auto-start-reverse"><path d="M0,0 L10,5 L0,10 z" fill="#c4c9d4"/></marker></defs><circle cx="40" cy="60" r="9" fill="none" stroke="#22c55e" stroke-width="2"/><circle cx="40.0" cy="60.0" r="2.5" fill="#22c55e"/><text x="40.0" y="34.0" fill="#22c55e" font-size="16" text-anchor="middle" dominant-baseline="middle" font-family="'Times New Roman', 'STIX Two Math', Georgia, serif" font-style="italic">B⃗</text><rect x="90" y="30" width="50" height="190" fill="none" fill-opacity="1" stroke="#c4c9d4" stroke-width="2"/><circle cx="105" cy="46" r="8" fill="none" stroke="#3b82f6" stroke-width="2"/><text x="105.0" y="47.0" fill="#3b82f6" font-size="13" text-anchor="middle" dominant-baseline="middle" font-weight="600">−</text><circle cx="125" cy="46" r="8" fill="none" stroke="#3b82f6" stroke-width="2"/><text x="125.0" y="47.0" fill="#3b82f6" font-size="13" text-anchor="middle" dominant-baseline="middle" font-weight="600">−</text><circle cx="105" cy="64" r="8" fill="none" stroke="#3b82f6" stroke-width="2"/><text x="105.0" y="65.0" fill="#3b82f6" font-size="13" text-anchor="middle" dominant-baseline="middle" font-weight="600">−</text><circle cx="125" cy="64" r="8" fill="none" stroke="#3b82f6" stroke-width="2"/><text x="125.0" y="65.0" fill="#3b82f6" font-size="13" text-anchor="middle" dominant-baseline="middle" font-weight="600">−</text><circle cx="105" cy="188" r="8" fill="none" stroke="#ef4444" stroke-width="2"/><text x="105.0" y="189.0" fill="#ef4444" font-size="13" text-anchor="middle" dominant-baseline="middle" font-weight="600">+</text><circle cx="125" cy="188" r="8" fill="none" stroke="#ef4444" stroke-width="2"/><text x="125.0" y="189.0" fill="#ef4444" font-size="13" text-anchor="middle" dominant-baseline="middle" font-weight="600">+</text><circle cx="105" cy="206" r="8" fill="none" stroke="#ef4444" stroke-width="2"/><text x="105.0" y="207.0" fill="#ef4444" font-size="13" text-anchor="middle" dominant-baseline="middle" font-weight="600">+</text><circle cx="125" cy="206" r="8" fill="none" stroke="#ef4444" stroke-width="2"/><text x="125.0" y="207.0" fill="#ef4444" font-size="13" text-anchor="middle" dominant-baseline="middle" font-weight="600">+</text><line x1="140.0" y1="55.0" x2="360.0" y2="55.0" stroke="#f59e0b" stroke-width="2.5" stroke-linecap="round"/><line x1="140.0" y1="196.0" x2="360.0" y2="196.0" stroke="#f59e0b" stroke-width="2.5" stroke-linecap="round"/><circle cx="260" cy="55" r="8" fill="none" stroke="#ef4444" stroke-width="2"/><text x="260.0" y="56.0" fill="#ef4444" font-size="13" text-anchor="middle" dominant-baseline="middle" font-weight="600">+</text><line x1="240.0" y1="40.0" x2="200.0" y2="40.0" stroke="#f59e0b" stroke-width="2" stroke-linecap="round" marker-end="url(#ff59e0b)"/><circle cx="160" cy="120" r="8" fill="none" stroke="#ef4444" stroke-width="2"/><text x="160.0" y="121.0" fill="#ef4444" font-size="13" text-anchor="middle" dominant-baseline="middle" font-weight="600">+</text><line x1="115.0" y1="90.0" x2="115.0" y2="150.0" stroke="#f59e0b" stroke-width="2.5" stroke-linecap="round" marker-end="url(#ff59e0b)"/><circle cx="260" cy="196" r="8" fill="none" stroke="#ef4444" stroke-width="2"/><text x="260.0" y="197.0" fill="#ef4444" font-size="13" text-anchor="middle" dominant-baseline="middle" font-weight="600">+</text><line x1="276.0" y1="212.0" x2="316.0" y2="212.0" stroke="#f59e0b" stroke-width="2" stroke-linecap="round" marker-end="url(#ff59e0b)"/></svg>
