<svg xmlns="http://www.w3.org/2000/svg" viewBox="0 0 740 170" width="740" height="170" font-family="ui-sans-serif, system-ui, -apple-system, 'Segoe UI', sans-serif"><defs><marker id="f8b93a1" viewBox="0 0 10 10" refX="9" refY="5" markerWidth="7" markerHeight="7" orient="auto-start-reverse"><path d="M0,0 L10,5 L0,10 z" fill="#8b93a1"/></marker><marker id="f3b82f6" viewBox="0 0 10 10" refX="9" refY="5" markerWidth="7" markerHeight="7" orient="auto-start-reverse"><path d="M0,0 L10,5 L0,10 z" fill="#3b82f6"/></marker><marker id="fef4444" viewBox="0 0 10 10" refX="9" refY="5" markerWidth="7" markerHeight="7" orient="auto-start-reverse"><path d="M0,0 L10,5 L0,10 z" fill="#ef4444"/></marker><marker id="f22c55e" viewBox="0 0 10 10" refX="9" refY="5" markerWidth="7" markerHeight="7" orient="auto-start-reverse"><path d="M0,0 L10,5 L0,10 z" fill="#22c55e"/></marker><marker id="ff59e0b" viewBox="0 0 10 10" refX="9" refY="5" markerWidth="7" markerHeight="7" orient="auto-start-reverse"><path d="M0,0 L10,5 L0,10 z" fill="#f59e0b"/></marker><marker id="fa855f7" viewBox="0 0 10 10" refX="9" refY="5" markerWidth="7" markerHeight="7" orient="auto-start-reverse"><path d="M0,0 L10,5 L0,10 z" fill="#a855f7"/></marker><marker id="fec4899" viewBox="0 0 10 10" refX="9" refY="5" markerWidth="7" markerHeight="7" orient="auto-start-reverse"><path d="M0,0 L10,5 L0,10 z" fill="#ec4899"/></marker><marker id="f14b8a6" viewBox="0 0 10 10" refX="9" refY="5" markerWidth="7" markerHeight="7" orient="auto-start-reverse"><path d="M0,0 L10,5 L0,10 z" fill="#14b8a6"/></marker><marker id="fc4c9d4" viewBox="0 0 10 10" refX="9" refY="5" markerWidth="7" markerHeight="7" orient="auto-start-reverse"><path d="M0,0 L10,5 L0,10 z" fill="#c4c9d4"/></marker></defs><line x1="20.0" y1="140.0" x2="180.0" y2="140.0" stroke="#c4c9d4" stroke-width="1.6" stroke-linecap="round"/><path d="M20.0,140.0 L21.0,140.0 L22.0,140.0 L23.0,140.0 L24.0,140.0 L25.0,140.0 L26.0,140.0 L27.0,140.0 L28.0,140.0 L29.0,140.0 L30.0,140.0 L31.0,140.0 L32.0,140.0 L33.0,140.0 L34.0,140.0 L35.0,140.0 L36.0,140.0 L37.0,140.0 L38.0,140.0 L39.0,140.0 L40.0,140.0 L41.0,140.0 L42.0,140.0 L43.0,140.0 L44.0,140.0 L45.0,140.0 L46.0,139.9 L47.0,139.9 L48.0,139.8 L49.0,139.6 L50.0,139.3 L51.0,138.9 L52.0,138.3 L53.0,137.3 L54.0,136.0 L55.0,134.1 L56.0,131.6 L57.0,128.2 L58.0,123.9 L59.0,118.7 L60.0,112.4 L61.0,105.1 L62.0,96.9 L63.0,88.1 L64.0,79.1 L65.0,70.2 L66.0,62.0 L67.0,55.0 L68.0,49.6 L69.0,46.2 L70.0,45.0 L71.0,46.2 L72.0,49.6 L73.0,55.0 L74.0,62.0 L75.0,70.2 L76.0,79.1 L77.0,88.1 L78.0,96.9 L79.0,105.1 L80.0,112.4 L81.0,118.7 L82.0,123.9 L83.0,128.2 L84.0,131.6 L85.0,134.1 L86.0,136.0 L87.0,137.3 L88.0,138.3 L89.0,138.9 L90.0,139.3 L91.0,139.6 L92.0,139.8 L93.0,139.9 L94.0,139.9 L95.0,140.0 L96.0,140.0 L97.0,140.0 L98.0,140.0 L99.0,140.0 L100.0,140.0 L101.0,140.0 L102.0,140.0 L103.0,140.0 L104.0,140.0 L105.0,140.0 L106.0,140.0 L107.0,140.0 L108.0,140.0 L109.0,140.0 L110.0,140.0 L111.0,140.0 L112.0,140.0 L113.0,140.0 L114.0,140.0 L115.0,140.0 L116.0,140.0 L117.0,140.0 L118.0,140.0 L119.0,140.0 L120.0,140.0 L121.0,140.0 L122.0,140.0 L123.0,140.0 L124.0,140.0 L125.0,140.0 L126.0,140.0 L127.0,140.0 L128.0,140.0 L129.0,140.0 L130.0,140.0 L131.0,140.0 L132.0,140.0 L133.0,140.0 L134.0,140.0 L135.0,140.0 L136.0,140.0 L137.0,140.0 L138.0,140.0 L139.0,140.0 L140.0,140.0 L141.0,140.0 L142.0,140.0 L143.0,140.0 L144.0,140.0 L145.0,140.0 L146.0,140.0 L147.0,140.0 L148.0,140.0 L149.0,140.0 L150.0,140.0 L151.0,140.0 L152.0,140.0 L153.0,140.0 L154.0,140.0 L155.0,140.0 L156.0,140.0 L157.0,140.0 L158.0,140.0 L159.0,140.0 L160.0,140.0 L161.0,140.0 L162.0,140.0 L163.0,140.0 L164.0,140.0 L165.0,140.0 L166.0,140.0 L167.0,140.0 L168.0,140.0 L169.0,140.0 L170.0,140.0 L171.0,140.0 L172.0,140.0 L173.0,140.0 L174.0,140.0 L175.0,140.0 L176.0,140.0 L177.0,140.0 L178.0,140.0 L179.0,140.0 L180.0,140.0" fill="none" stroke="#f59e0b" stroke-width="2.2"/><line x1="70.0" y1="30.0" x2="70.0" y2="140.0" stroke="#c4c9d4" stroke-width="1.2" stroke-linecap="round" stroke-dasharray="3 3"/><text x="70.0" y="156.0" fill="#c4c9d4" font-size="14" text-anchor="middle" dominant-baseline="middle" font-family="'Times New Roman', 'STIX Two Math', Georgia, serif" font-style="italic">λ</text><text x="100.0" y="18.0" fill="#c4c9d4" font-size="14" text-anchor="middle" dominant-baseline="middle" font-family="'Times New Roman', 'STIX Two Math', Georgia, serif" font-style="italic">θ = 0°</text><line x1="200.0" y1="140.0" x2="360.0" y2="140.0" stroke="#c4c9d4" stroke-width="1.6" stroke-linecap="round"/><path d="M200.0,140.0 L201.0,140.0 L202.0,140.0 L203.0,140.0 L204.0,140.0 L205.0,140.0 L206.0,140.0 L207.0,140.0 L208.0,140.0 L209.0,140.0 L210.0,140.0 L211.0,140.0 L212.0,140.0 L213.0,140.0 L214.0,140.0 L215.0,140.0 L216.0,140.0 L217.0,140.0 L218.0,140.0 L219.0,140.0 L220.0,140.0 L221.0,140.0 L222.0,140.0 L223.0,140.0 L224.0,140.0 L225.0,140.0 L226.0,139.9 L227.0,139.9 L228.0,139.8 L229.0,139.7 L230.0,139.4 L231.0,139.1 L232.0,138.6 L233.0,137.8 L234.0,136.7 L235.0,135.2 L236.0,133.1 L237.0,130.3 L238.0,126.8 L239.0,122.4 L240.0,117.1 L241.0,110.9 L242.0,103.9 L243.0,96.3 L244.0,88.4 L245.0,80.3 L246.0,72.5 L247.0,65.4 L248.0,59.2 L249.0,54.3 L250.0,50.7 L251.0,48.6 L252.0,47.8 L253.0,48.3 L254.0,49.7 L255.0,51.7 L256.0,54.1 L257.0,56.6 L258.0,59.0 L259.0,61.2 L260.0,63.3 L261.0,65.2 L262.0,67.0 L263.0,69.0 L264.0,71.2 L265.0,73.7 L266.0,76.8 L267.0,80.3 L268.0,84.3 L269.0,88.7 L270.0,93.4 L271.0,98.3 L272.0,103.3 L273.0,108.1 L274.0,112.8 L275.0,117.2 L276.0,121.1 L277.0,124.7 L278.0,127.7 L279.0,130.3 L280.0,132.5 L281.0,134.3 L282.0,135.7 L283.0,136.9 L284.0,137.7 L285.0,138.4 L286.0,138.9 L287.0,139.2 L288.0,139.5 L289.0,139.6 L290.0,139.8 L291.0,139.9 L292.0,139.9 L293.0,139.9 L294.0,140.0 L295.0,140.0 L296.0,140.0 L297.0,140.0 L298.0,140.0 L299.0,140.0 L300.0,140.0 L301.0,140.0 L302.0,140.0 L303.0,140.0 L304.0,140.0 L305.0,140.0 L306.0,140.0 L307.0,140.0 L308.0,140.0 L309.0,140.0 L310.0,140.0 L311.0,140.0 L312.0,140.0 L313.0,140.0 L314.0,140.0 L315.0,140.0 L316.0,140.0 L317.0,140.0 L318.0,140.0 L319.0,140.0 L320.0,140.0 L321.0,140.0 L322.0,140.0 L323.0,140.0 L324.0,140.0 L325.0,140.0 L326.0,140.0 L327.0,140.0 L328.0,140.0 L329.0,140.0 L330.0,140.0 L331.0,140.0 L332.0,140.0 L333.0,140.0 L334.0,140.0 L335.0,140.0 L336.0,140.0 L337.0,140.0 L338.0,140.0 L339.0,140.0 L340.0,140.0 L341.0,140.0 L342.0,140.0 L343.0,140.0 L344.0,140.0 L345.0,140.0 L346.0,140.0 L347.0,140.0 L348.0,140.0 L349.0,140.0 L350.0,140.0 L351.0,140.0 L352.0,140.0 L353.0,140.0 L354.0,140.0 L355.0,140.0 L356.0,140.0 L357.0,140.0 L358.0,140.0 L359.0,140.0 L360.0,140.0" fill="none" stroke="#f59e0b" stroke-width="2.2"/><line x1="250.0" y1="30.0" x2="250.0" y2="140.0" stroke="#c4c9d4" stroke-width="1.2" stroke-linecap="round" stroke-dasharray="3 3"/><text x="250.0" y="156.0" fill="#c4c9d4" font-size="14" text-anchor="middle" dominant-baseline="middle" font-family="'Times New Roman', 'STIX Two Math', Georgia, serif" font-style="italic">λ</text><line x1="264.0" y1="30.0" x2="264.0" y2="140.0" stroke="#c4c9d4" stroke-width="1.2" stroke-linecap="round" stroke-dasharray="3 3"/><text x="268.0" y="156.0" fill="#c4c9d4" font-size="14" text-anchor="middle" dominant-baseline="middle" font-family="'Times New Roman', 'STIX Two Math', Georgia, serif" font-style="italic">λ′</text><text x="280.0" y="18.0" fill="#c4c9d4" font-size="14" text-anchor="middle" dominant-baseline="middle" font-family="'Times New Roman', 'STIX Two Math', Georgia, serif" font-style="italic">θ = 45°</text><line x1="380.0" y1="140.0" x2="540.0" y2="140.0" stroke="#c4c9d4" stroke-width="1.6" stroke-linecap="round"/><path d="M380.0,140.0 L381.0,140.0 L382.0,140.0 L383.0,140.0 L384.0,140.0 L385.0,140.0 L386.0,140.0 L387.0,140.0 L388.0,140.0 L389.0,140.0 L390.0,140.0 L391.0,140.0 L392.0,140.0 L393.0,140.0 L394.0,140.0 L395.0,140.0 L396.0,140.0 L397.0,140.0 L398.0,140.0 L399.0,140.0 L400.0,140.0 L401.0,140.0 L402.0,140.0 L403.0,140.0 L404.0,140.0 L405.0,140.0 L406.0,140.0 L407.0,139.9 L408.0,139.9 L409.0,139.7 L410.0,139.6 L411.0,139.3 L412.0,138.9 L413.0,138.3 L414.0,137.5 L415.0,136.3 L416.0,134.8 L417.0,132.7 L418.0,130.0 L419.0,126.8 L420.0,122.8 L421.0,118.3 L422.0,113.2 L423.0,107.8 L424.0,102.2 L425.0,96.7 L426.0,91.6 L427.0,87.2 L428.0,83.8 L429.0,81.7 L430.0,81.0 L431.0,81.7 L432.0,83.8 L433.0,87.2 L434.0,91.5 L435.0,96.6 L436.0,102.0 L437.0,107.6 L438.0,112.9 L439.0,117.8 L440.0,122.1 L441.0,125.7 L442.0,128.5 L443.0,130.5 L444.0,131.7 L445.0,132.1 L446.0,131.7 L447.0,130.6 L448.0,128.8 L449.0,126.2 L450.0,123.0 L451.0,119.0 L452.0,114.3 L453.0,109.0 L454.0,103.2 L455.0,97.0 L456.0,90.5 L457.0,84.0 L458.0,77.6 L459.0,71.7 L460.0,66.4 L461.0,62.0 L462.0,58.7 L463.0,56.7 L464.0,56.0 L465.0,56.7 L466.0,58.7 L467.0,62.0 L468.0,66.4 L469.0,71.7 L470.0,77.6 L471.0,84.0 L472.0,90.5 L473.0,97.0 L474.0,103.2 L475.0,109.1 L476.0,114.4 L477.0,119.2 L478.0,123.4 L479.0,126.9 L480.0,129.9 L481.0,132.3 L482.0,134.2 L483.0,135.7 L484.0,136.9 L485.0,137.8 L486.0,138.5 L487.0,138.9 L488.0,139.3 L489.0,139.5 L490.0,139.7 L491.0,139.8 L492.0,139.9 L493.0,139.9 L494.0,140.0 L495.0,140.0 L496.0,140.0 L497.0,140.0 L498.0,140.0 L499.0,140.0 L500.0,140.0 L501.0,140.0 L502.0,140.0 L503.0,140.0 L504.0,140.0 L505.0,140.0 L506.0,140.0 L507.0,140.0 L508.0,140.0 L509.0,140.0 L510.0,140.0 L511.0,140.0 L512.0,140.0 L513.0,140.0 L514.0,140.0 L515.0,140.0 L516.0,140.0 L517.0,140.0 L518.0,140.0 L519.0,140.0 L520.0,140.0 L521.0,140.0 L522.0,140.0 L523.0,140.0 L524.0,140.0 L525.0,140.0 L526.0,140.0 L527.0,140.0 L528.0,140.0 L529.0,140.0 L530.0,140.0 L531.0,140.0 L532.0,140.0 L533.0,140.0 L534.0,140.0 L535.0,140.0 L536.0,140.0 L537.0,140.0 L538.0,140.0 L539.0,140.0 L540.0,140.0" fill="none" stroke="#f59e0b" stroke-width="2.2"/><line x1="430.0" y1="30.0" x2="430.0" y2="140.0" stroke="#c4c9d4" stroke-width="1.2" stroke-linecap="round" stroke-dasharray="3 3"/><text x="430.0" y="156.0" fill="#c4c9d4" font-size="14" text-anchor="middle" dominant-baseline="middle" font-family="'Times New Roman', 'STIX Two Math', Georgia, serif" font-style="italic">λ</text><line x1="464.0" y1="30.0" x2="464.0" y2="140.0" stroke="#c4c9d4" stroke-width="1.2" stroke-linecap="round" stroke-dasharray="3 3"/><text x="468.0" y="156.0" fill="#c4c9d4" font-size="14" text-anchor="middle" dominant-baseline="middle" font-family="'Times New Roman', 'STIX Two Math', Georgia, serif" font-style="italic">λ′</text><text x="460.0" y="18.0" fill="#c4c9d4" font-size="14" text-anchor="middle" dominant-baseline="middle" font-family="'Times New Roman', 'STIX Two Math', Georgia, serif" font-style="italic">θ = 90°</text><line x1="560.0" y1="140.0" x2="720.0" y2="140.0" stroke="#c4c9d4" stroke-width="1.6" stroke-linecap="round"/><path d="M560.0,140.0 L561.0,140.0 L562.0,140.0 L563.0,140.0 L564.0,140.0 L565.0,140.0 L566.0,140.0 L567.0,140.0 L568.0,140.0 L569.0,140.0 L570.0,140.0 L571.0,140.0 L572.0,140.0 L573.0,140.0 L574.0,140.0 L575.0,140.0 L576.0,140.0 L577.0,140.0 L578.0,140.0 L579.0,140.0 L580.0,140.0 L581.0,140.0 L582.0,140.0 L583.0,140.0 L584.0,140.0 L585.0,140.0 L586.0,140.0 L587.0,139.9 L588.0,139.9 L589.0,139.8 L590.0,139.7 L591.0,139.5 L592.0,139.2 L593.0,138.8 L594.0,138.3 L595.0,137.5 L596.0,136.4 L597.0,134.9 L598.0,133.1 L599.0,130.8 L600.0,128.1 L601.0,124.9 L602.0,121.4 L603.0,117.6 L604.0,113.7 L605.0,109.9 L606.0,106.3 L607.0,103.3 L608.0,101.0 L609.0,99.5 L610.0,99.0 L611.0,99.5 L612.0,101.0 L613.0,103.3 L614.0,106.3 L615.0,109.9 L616.0,113.7 L617.0,117.6 L618.0,121.4 L619.0,124.9 L620.0,128.1 L621.0,130.8 L622.0,133.1 L623.0,134.9 L624.0,136.4 L625.0,137.4 L626.0,138.3 L627.0,138.8 L628.0,139.2 L629.0,139.5 L630.0,139.7 L631.0,139.8 L632.0,139.8 L633.0,139.8 L634.0,139.8 L635.0,139.7 L636.0,139.6 L637.0,139.4 L638.0,139.1 L639.0,138.7 L640.0,138.1 L641.0,137.2 L642.0,136.1 L643.0,134.6 L644.0,132.7 L645.0,130.3 L646.0,127.2 L647.0,123.5 L648.0,119.0 L649.0,113.8 L650.0,107.8 L651.0,101.0 L652.0,93.6 L653.0,85.7 L654.0,77.5 L655.0,69.3 L656.0,61.3 L657.0,53.8 L658.0,47.1 L659.0,41.6 L660.0,37.4 L661.0,34.9 L662.0,34.0 L663.0,34.9 L664.0,37.4 L665.0,41.6 L666.0,47.1 L667.0,53.8 L668.0,61.3 L669.0,69.3 L670.0,77.5 L671.0,85.7 L672.0,93.6 L673.0,101.0 L674.0,107.8 L675.0,113.8 L676.0,119.0 L677.0,123.5 L678.0,127.2 L679.0,130.3 L680.0,132.7 L681.0,134.6 L682.0,136.1 L683.0,137.2 L684.0,138.1 L685.0,138.7 L686.0,139.1 L687.0,139.4 L688.0,139.6 L689.0,139.7 L690.0,139.8 L691.0,139.9 L692.0,139.9 L693.0,140.0 L694.0,140.0 L695.0,140.0 L696.0,140.0 L697.0,140.0 L698.0,140.0 L699.0,140.0 L700.0,140.0 L701.0,140.0 L702.0,140.0 L703.0,140.0 L704.0,140.0 L705.0,140.0 L706.0,140.0 L707.0,140.0 L708.0,140.0 L709.0,140.0 L710.0,140.0 L711.0,140.0 L712.0,140.0 L713.0,140.0 L714.0,140.0 L715.0,140.0 L716.0,140.0 L717.0,140.0 L718.0,140.0 L719.0,140.0 L720.0,140.0" fill="none" stroke="#f59e0b" stroke-width="2.2"/><line x1="610.0" y1="30.0" x2="610.0" y2="140.0" stroke="#c4c9d4" stroke-width="1.2" stroke-linecap="round" stroke-dasharray="3 3"/><text x="610.0" y="156.0" fill="#c4c9d4" font-size="14" text-anchor="middle" dominant-baseline="middle" font-family="'Times New Roman', 'STIX Two Math', Georgia, serif" font-style="italic">λ</text><line x1="662.0" y1="30.0" x2="662.0" y2="140.0" stroke="#c4c9d4" stroke-width="1.2" stroke-linecap="round" stroke-dasharray="3 3"/><text x="666.0" y="156.0" fill="#c4c9d4" font-size="14" text-anchor="middle" dominant-baseline="middle" font-family="'Times New Roman', 'STIX Two Math', Georgia, serif" font-style="italic">λ′</text><text x="640.0" y="18.0" fill="#c4c9d4" font-size="14" text-anchor="middle" dominant-baseline="middle" font-family="'Times New Roman', 'STIX Two Math', Georgia, serif" font-style="italic">θ = 135°</text></svg>
