<svg xmlns="http://www.w3.org/2000/svg" viewBox="0 0 1080 215" width="1080" height="215" font-family="ui-sans-serif, system-ui, -apple-system, 'Segoe UI', sans-serif"><defs><marker id="f8b93a1" viewBox="0 0 10 10" refX="9" refY="5" markerWidth="7" markerHeight="7" orient="auto-start-reverse"><path d="M0,0 L10,5 L0,10 z" fill="#8b93a1"/></marker><marker id="f3b82f6" viewBox="0 0 10 10" refX="9" refY="5" markerWidth="7" markerHeight="7" orient="auto-start-reverse"><path d="M0,0 L10,5 L0,10 z" fill="#3b82f6"/></marker><marker id="fef4444" viewBox="0 0 10 10" refX="9" refY="5" markerWidth="7" markerHeight="7" orient="auto-start-reverse"><path d="M0,0 L10,5 L0,10 z" fill="#ef4444"/></marker><marker id="f22c55e" viewBox="0 0 10 10" refX="9" refY="5" markerWidth="7" markerHeight="7" orient="auto-start-reverse"><path d="M0,0 L10,5 L0,10 z" fill="#22c55e"/></marker><marker id="ff59e0b" viewBox="0 0 10 10" refX="9" refY="5" markerWidth="7" markerHeight="7" orient="auto-start-reverse"><path d="M0,0 L10,5 L0,10 z" fill="#f59e0b"/></marker><marker id="fa855f7" viewBox="0 0 10 10" refX="9" refY="5" markerWidth="7" markerHeight="7" orient="auto-start-reverse"><path d="M0,0 L10,5 L0,10 z" fill="#a855f7"/></marker><marker id="fec4899" viewBox="0 0 10 10" refX="9" refY="5" markerWidth="7" markerHeight="7" orient="auto-start-reverse"><path d="M0,0 L10,5 L0,10 z" fill="#ec4899"/></marker><marker id="f14b8a6" viewBox="0 0 10 10" refX="9" refY="5" markerWidth="7" markerHeight="7" orient="auto-start-reverse"><path d="M0,0 L10,5 L0,10 z" fill="#14b8a6"/></marker><marker id="fc4c9d4" viewBox="0 0 10 10" refX="9" refY="5" markerWidth="7" markerHeight="7" orient="auto-start-reverse"><path d="M0,0 L10,5 L0,10 z" fill="#c4c9d4"/></marker></defs><rect x="77.0" y="23.0" width="96" height="34" fill="#1b1e26" fill-opacity="1" stroke="#c4c9d4" stroke-width="2"/><text x="125.0" y="40.0" fill="#c4c9d4" font-size="15" text-anchor="middle" dominant-baseline="middle" font-family="'Times New Roman', 'STIX Two Math', Georgia, serif" font-style="italic">i = 0 A</text><line x1="30.0" y1="40.0" x2="77.0" y2="40.0" stroke="#c4c9d4" stroke-width="2" stroke-linecap="round"/><line x1="173.0" y1="40.0" x2="220.0" y2="40.0" stroke="#c4c9d4" stroke-width="2" stroke-linecap="round"/><line x1="30.0" y1="40.0" x2="30.0" y2="150.0" stroke="#c4c9d4" stroke-width="2" stroke-linecap="round"/><line x1="220.0" y1="40.0" x2="220.0" y2="150.0" stroke="#c4c9d4" stroke-width="2" stroke-linecap="round"/><line x1="30.0" y1="150.0" x2="60.0" y2="150.0" stroke="#c4c9d4" stroke-width="2" stroke-linecap="round"/><line x1="190.0" y1="150.0" x2="220.0" y2="150.0" stroke="#c4c9d4" stroke-width="2" stroke-linecap="round"/><ellipse cx="67.22222222222223" cy="150" rx="10.833333333333334" ry="27.0" fill="none" fill-opacity="1" stroke="#c4c9d4" stroke-width="2"/><ellipse cx="81.66666666666667" cy="150" rx="10.833333333333334" ry="27.0" fill="none" fill-opacity="1" stroke="#c4c9d4" stroke-width="2"/><ellipse cx="96.11111111111111" cy="150" rx="10.833333333333334" ry="27.0" fill="none" fill-opacity="1" stroke="#c4c9d4" stroke-width="2"/><ellipse cx="110.55555555555556" cy="150" rx="10.833333333333334" ry="27.0" fill="none" fill-opacity="1" stroke="#c4c9d4" stroke-width="2"/><ellipse cx="125.0" cy="150" rx="10.833333333333334" ry="27.0" fill="none" fill-opacity="1" stroke="#c4c9d4" stroke-width="2"/><ellipse cx="139.44444444444446" cy="150" rx="10.833333333333334" ry="27.0" fill="none" fill-opacity="1" stroke="#c4c9d4" stroke-width="2"/><ellipse cx="153.88888888888889" cy="150" rx="10.833333333333334" ry="27.0" fill="none" fill-opacity="1" stroke="#c4c9d4" stroke-width="2"/><ellipse cx="168.33333333333331" cy="150" rx="10.833333333333334" ry="27.0" fill="none" fill-opacity="1" stroke="#c4c9d4" stroke-width="2"/><ellipse cx="182.77777777777777" cy="150" rx="10.833333333333334" ry="27.0" fill="none" fill-opacity="1" stroke="#c4c9d4" stroke-width="2"/><line x1="381.0" y1="24.0" x2="381.0" y2="56.0" stroke="#c4c9d4" stroke-width="2.5" stroke-linecap="round"/><line x1="389.0" y1="32.0" x2="389.0" y2="48.0" stroke="#c4c9d4" stroke-width="4" stroke-linecap="round"/><text x="373.0" y="18.0" fill="#c4c9d4" font-size="14" text-anchor="middle" dominant-baseline="middle">+</text><text x="397.0" y="18.0" fill="#c4c9d4" font-size="14" text-anchor="middle" dominant-baseline="middle">−</text><line x1="290.0" y1="40.0" x2="375.0" y2="40.0" stroke="#c4c9d4" stroke-width="2" stroke-linecap="round"/><line x1="395.0" y1="40.0" x2="480.0" y2="40.0" stroke="#c4c9d4" stroke-width="2" stroke-linecap="round"/><line x1="290.0" y1="40.0" x2="290.0" y2="150.0" stroke="#c4c9d4" stroke-width="2" stroke-linecap="round"/><line x1="290.0" y1="150.0" x2="320.0" y2="150.0" stroke="#c4c9d4" stroke-width="2" stroke-linecap="round"/><ellipse cx="327.22222222222223" cy="150" rx="10.833333333333334" ry="27.0" fill="none" fill-opacity="1" stroke="#c4c9d4" stroke-width="2"/><ellipse cx="341.6666666666667" cy="150" rx="10.833333333333334" ry="27.0" fill="none" fill-opacity="1" stroke="#c4c9d4" stroke-width="2"/><ellipse cx="356.1111111111111" cy="150" rx="10.833333333333334" ry="27.0" fill="none" fill-opacity="1" stroke="#c4c9d4" stroke-width="2"/><ellipse cx="370.55555555555554" cy="150" rx="10.833333333333334" ry="27.0" fill="none" fill-opacity="1" stroke="#c4c9d4" stroke-width="2"/><ellipse cx="385.0" cy="150" rx="10.833333333333334" ry="27.0" fill="none" fill-opacity="1" stroke="#c4c9d4" stroke-width="2"/><ellipse cx="399.44444444444446" cy="150" rx="10.833333333333334" ry="27.0" fill="none" fill-opacity="1" stroke="#c4c9d4" stroke-width="2"/><ellipse cx="413.8888888888889" cy="150" rx="10.833333333333334" ry="27.0" fill="none" fill-opacity="1" stroke="#c4c9d4" stroke-width="2"/><ellipse cx="428.3333333333333" cy="150" rx="10.833333333333334" ry="27.0" fill="none" fill-opacity="1" stroke="#c4c9d4" stroke-width="2"/><ellipse cx="442.77777777777777" cy="150" rx="10.833333333333334" ry="27.0" fill="none" fill-opacity="1" stroke="#c4c9d4" stroke-width="2"/><line x1="450.0" y1="150.0" x2="480.0" y2="150.0" stroke="#c4c9d4" stroke-width="2" stroke-linecap="round"/><line x1="480.0" y1="40.0" x2="480.0" y2="150.0" stroke="#c4c9d4" stroke-width="2" stroke-linecap="round"/><line x1="300.0" y1="150.0" x2="470.0" y2="150.0" stroke="#22c55e" stroke-width="1.8" stroke-linecap="round" marker-end="url(#f22c55e)"/><text x="466.0" y="172.0" fill="#22c55e" font-size="15" text-anchor="middle" dominant-baseline="middle" font-family="'Times New Roman', 'STIX Two Math', Georgia, serif" font-style="italic">B⃗</text><text x="385.0" y="200.0" fill="#c4c9d4" font-size="13" text-anchor="middle" dominant-baseline="middle">fermo: i = 0 A nel primo</text><rect x="627.0" y="23.0" width="96" height="34" fill="#1b1e26" fill-opacity="1" stroke="#f59e0b" stroke-width="2"/><text x="675.0" y="40.0" fill="#f59e0b" font-size="15" text-anchor="middle" dominant-baseline="middle" font-family="'Times New Roman', 'STIX Two Math', Georgia, serif" font-style="italic">i ≠ 0 A</text><line x1="580.0" y1="40.0" x2="627.0" y2="40.0" stroke="#f59e0b" stroke-width="2" stroke-linecap="round"/><line x1="723.0" y1="40.0" x2="770.0" y2="40.0" stroke="#f59e0b" stroke-width="2" stroke-linecap="round"/><line x1="580.0" y1="40.0" x2="580.0" y2="150.0" stroke="#f59e0b" stroke-width="2" stroke-linecap="round"/><line x1="770.0" y1="40.0" x2="770.0" y2="150.0" stroke="#f59e0b" stroke-width="2" stroke-linecap="round"/><line x1="580.0" y1="150.0" x2="610.0" y2="150.0" stroke="#f59e0b" stroke-width="2" stroke-linecap="round"/><line x1="740.0" y1="150.0" x2="770.0" y2="150.0" stroke="#f59e0b" stroke-width="2" stroke-linecap="round"/><ellipse cx="617.2222222222222" cy="150" rx="10.833333333333334" ry="27.0" fill="none" fill-opacity="1" stroke="#c4c9d4" stroke-width="2"/><ellipse cx="631.6666666666666" cy="150" rx="10.833333333333334" ry="27.0" fill="none" fill-opacity="1" stroke="#c4c9d4" stroke-width="2"/><ellipse cx="646.1111111111111" cy="150" rx="10.833333333333334" ry="27.0" fill="none" fill-opacity="1" stroke="#c4c9d4" stroke-width="2"/><ellipse cx="660.5555555555555" cy="150" rx="10.833333333333334" ry="27.0" fill="none" fill-opacity="1" stroke="#c4c9d4" stroke-width="2"/><ellipse cx="675.0" cy="150" rx="10.833333333333334" ry="27.0" fill="none" fill-opacity="1" stroke="#c4c9d4" stroke-width="2"/><ellipse cx="689.4444444444445" cy="150" rx="10.833333333333334" ry="27.0" fill="none" fill-opacity="1" stroke="#c4c9d4" stroke-width="2"/><ellipse cx="703.8888888888889" cy="150" rx="10.833333333333334" ry="27.0" fill="none" fill-opacity="1" stroke="#c4c9d4" stroke-width="2"/><ellipse cx="718.3333333333334" cy="150" rx="10.833333333333334" ry="27.0" fill="none" fill-opacity="1" stroke="#c4c9d4" stroke-width="2"/><ellipse cx="732.7777777777778" cy="150" rx="10.833333333333334" ry="27.0" fill="none" fill-opacity="1" stroke="#c4c9d4" stroke-width="2"/><path d="M580.0,100.0 L575.7,91.0 L584.3,91.0 Z" fill="#f59e0b"/><path d="M770.0,100.0 L774.3,109.0 L765.7,109.0 Z" fill="#f59e0b"/><line x1="931.0" y1="24.0" x2="931.0" y2="56.0" stroke="#c4c9d4" stroke-width="2.5" stroke-linecap="round"/><line x1="939.0" y1="32.0" x2="939.0" y2="48.0" stroke="#c4c9d4" stroke-width="4" stroke-linecap="round"/><text x="923.0" y="18.0" fill="#c4c9d4" font-size="14" text-anchor="middle" dominant-baseline="middle">+</text><text x="947.0" y="18.0" fill="#c4c9d4" font-size="14" text-anchor="middle" dominant-baseline="middle">−</text><line x1="840.0" y1="40.0" x2="925.0" y2="40.0" stroke="#c4c9d4" stroke-width="2" stroke-linecap="round"/><line x1="945.0" y1="40.0" x2="1030.0" y2="40.0" stroke="#c4c9d4" stroke-width="2" stroke-linecap="round"/><line x1="840.0" y1="40.0" x2="840.0" y2="150.0" stroke="#c4c9d4" stroke-width="2" stroke-linecap="round"/><line x1="840.0" y1="150.0" x2="870.0" y2="150.0" stroke="#c4c9d4" stroke-width="2" stroke-linecap="round"/><ellipse cx="877.2222222222222" cy="150" rx="10.833333333333334" ry="27.0" fill="none" fill-opacity="1" stroke="#c4c9d4" stroke-width="2"/><ellipse cx="891.6666666666666" cy="150" rx="10.833333333333334" ry="27.0" fill="none" fill-opacity="1" stroke="#c4c9d4" stroke-width="2"/><ellipse cx="906.1111111111111" cy="150" rx="10.833333333333334" ry="27.0" fill="none" fill-opacity="1" stroke="#c4c9d4" stroke-width="2"/><ellipse cx="920.5555555555555" cy="150" rx="10.833333333333334" ry="27.0" fill="none" fill-opacity="1" stroke="#c4c9d4" stroke-width="2"/><ellipse cx="935.0" cy="150" rx="10.833333333333334" ry="27.0" fill="none" fill-opacity="1" stroke="#c4c9d4" stroke-width="2"/><ellipse cx="949.4444444444445" cy="150" rx="10.833333333333334" ry="27.0" fill="none" fill-opacity="1" stroke="#c4c9d4" stroke-width="2"/><ellipse cx="963.8888888888889" cy="150" rx="10.833333333333334" ry="27.0" fill="none" fill-opacity="1" stroke="#c4c9d4" stroke-width="2"/><ellipse cx="978.3333333333334" cy="150" rx="10.833333333333334" ry="27.0" fill="none" fill-opacity="1" stroke="#c4c9d4" stroke-width="2"/><ellipse cx="992.7777777777778" cy="150" rx="10.833333333333334" ry="27.0" fill="none" fill-opacity="1" stroke="#c4c9d4" stroke-width="2"/><line x1="1000.0" y1="150.0" x2="1030.0" y2="150.0" stroke="#c4c9d4" stroke-width="2" stroke-linecap="round"/><line x1="1030.0" y1="40.0" x2="1030.0" y2="150.0" stroke="#c4c9d4" stroke-width="2" stroke-linecap="round"/><line x1="850.0" y1="150.0" x2="1020.0" y2="150.0" stroke="#22c55e" stroke-width="1.8" stroke-linecap="round" marker-end="url(#f22c55e)"/><text x="1016.0" y="172.0" fill="#22c55e" font-size="15" text-anchor="middle" dominant-baseline="middle" font-family="'Times New Roman', 'STIX Two Math', Georgia, serif" font-style="italic">B⃗</text><line x1="808.0" y1="110.0" x2="788.0" y2="110.0" stroke="#f59e0b" stroke-width="2.5" stroke-linecap="round" marker-end="url(#ff59e0b)"/><line x1="1042.0" y1="110.0" x2="1062.0" y2="110.0" stroke="#f59e0b" stroke-width="2.5" stroke-linecap="round" marker-end="url(#ff59e0b)"/><text x="935.0" y="200.0" fill="#f59e0b" font-size="13" text-anchor="middle" dominant-baseline="middle">lo muovo: i ≠ 0 A nel primo</text></svg>
