<svg xmlns="http://www.w3.org/2000/svg" viewBox="0 0 870 210" width="870" height="210" font-family="ui-sans-serif, system-ui, -apple-system, 'Segoe UI', sans-serif"><defs><marker id="f8b93a1" viewBox="0 0 10 10" refX="9" refY="5" markerWidth="7" markerHeight="7" orient="auto-start-reverse"><path d="M0,0 L10,5 L0,10 z" fill="#8b93a1"/></marker><marker id="f3b82f6" viewBox="0 0 10 10" refX="9" refY="5" markerWidth="7" markerHeight="7" orient="auto-start-reverse"><path d="M0,0 L10,5 L0,10 z" fill="#3b82f6"/></marker><marker id="fef4444" viewBox="0 0 10 10" refX="9" refY="5" markerWidth="7" markerHeight="7" orient="auto-start-reverse"><path d="M0,0 L10,5 L0,10 z" fill="#ef4444"/></marker><marker id="f22c55e" viewBox="0 0 10 10" refX="9" refY="5" markerWidth="7" markerHeight="7" orient="auto-start-reverse"><path d="M0,0 L10,5 L0,10 z" fill="#22c55e"/></marker><marker id="ff59e0b" viewBox="0 0 10 10" refX="9" refY="5" markerWidth="7" markerHeight="7" orient="auto-start-reverse"><path d="M0,0 L10,5 L0,10 z" fill="#f59e0b"/></marker><marker id="fa855f7" viewBox="0 0 10 10" refX="9" refY="5" markerWidth="7" markerHeight="7" orient="auto-start-reverse"><path d="M0,0 L10,5 L0,10 z" fill="#a855f7"/></marker><marker id="fec4899" viewBox="0 0 10 10" refX="9" refY="5" markerWidth="7" markerHeight="7" orient="auto-start-reverse"><path d="M0,0 L10,5 L0,10 z" fill="#ec4899"/></marker><marker id="f14b8a6" viewBox="0 0 10 10" refX="9" refY="5" markerWidth="7" markerHeight="7" orient="auto-start-reverse"><path d="M0,0 L10,5 L0,10 z" fill="#14b8a6"/></marker><marker id="fc4c9d4" viewBox="0 0 10 10" refX="9" refY="5" markerWidth="7" markerHeight="7" orient="auto-start-reverse"><path d="M0,0 L10,5 L0,10 z" fill="#c4c9d4"/></marker></defs><rect x="77.0" y="23.0" width="96" height="34" fill="#1b1e26" fill-opacity="1" stroke="#c4c9d4" stroke-width="2"/><text x="125.0" y="40.0" fill="#c4c9d4" font-size="15" text-anchor="middle" dominant-baseline="middle" font-family="'Times New Roman', 'STIX Two Math', Georgia, serif" font-style="italic">i = 0 A</text><line x1="30.0" y1="40.0" x2="77.0" y2="40.0" stroke="#c4c9d4" stroke-width="2" stroke-linecap="round"/><line x1="173.0" y1="40.0" x2="220.0" y2="40.0" stroke="#c4c9d4" stroke-width="2" stroke-linecap="round"/><line x1="30.0" y1="40.0" x2="30.0" y2="150.0" stroke="#c4c9d4" stroke-width="2" stroke-linecap="round"/><line x1="220.0" y1="40.0" x2="220.0" y2="150.0" stroke="#c4c9d4" stroke-width="2" stroke-linecap="round"/><line x1="30.0" y1="150.0" x2="60.0" y2="150.0" stroke="#c4c9d4" stroke-width="2" stroke-linecap="round"/><line x1="190.0" y1="150.0" x2="220.0" y2="150.0" stroke="#c4c9d4" stroke-width="2" stroke-linecap="round"/><ellipse cx="67.22222222222223" cy="150" rx="10.833333333333334" ry="27.0" fill="none" fill-opacity="1" stroke="#c4c9d4" stroke-width="2"/><ellipse cx="81.66666666666667" cy="150" rx="10.833333333333334" ry="27.0" fill="none" fill-opacity="1" stroke="#c4c9d4" stroke-width="2"/><ellipse cx="96.11111111111111" cy="150" rx="10.833333333333334" ry="27.0" fill="none" fill-opacity="1" stroke="#c4c9d4" stroke-width="2"/><ellipse cx="110.55555555555556" cy="150" rx="10.833333333333334" ry="27.0" fill="none" fill-opacity="1" stroke="#c4c9d4" stroke-width="2"/><ellipse cx="125.0" cy="150" rx="10.833333333333334" ry="27.0" fill="none" fill-opacity="1" stroke="#c4c9d4" stroke-width="2"/><ellipse cx="139.44444444444446" cy="150" rx="10.833333333333334" ry="27.0" fill="none" fill-opacity="1" stroke="#c4c9d4" stroke-width="2"/><ellipse cx="153.88888888888889" cy="150" rx="10.833333333333334" ry="27.0" fill="none" fill-opacity="1" stroke="#c4c9d4" stroke-width="2"/><ellipse cx="168.33333333333331" cy="150" rx="10.833333333333334" ry="27.0" fill="none" fill-opacity="1" stroke="#c4c9d4" stroke-width="2"/><ellipse cx="182.77777777777777" cy="150" rx="10.833333333333334" ry="27.0" fill="none" fill-opacity="1" stroke="#c4c9d4" stroke-width="2"/><rect x="280" y="105.0" width="55.0" height="30" fill="#3b82f6" fill-opacity="0.85" stroke="#3b82f6" stroke-width="2"/><text x="307.5" y="120.0" fill="#fff" font-size="14" text-anchor="middle" dominant-baseline="middle" font-weight="600">N</text><rect x="335.0" y="105.0" width="55.0" height="30" fill="#ef4444" fill-opacity="0.85" stroke="#ef4444" stroke-width="2"/><text x="362.5" y="120.0" fill="#fff" font-size="14" text-anchor="middle" dominant-baseline="middle" font-weight="600">S</text><path d="M390,120 C400,92 270,92 280,120" fill="none" stroke="#22c55e" stroke-width="1.6"/><path d="M390,120 C400,148 270,148 280,120" fill="none" stroke="#22c55e" stroke-width="1.6"/><path d="M390,120 C400,68 270,68 280,120" fill="none" stroke="#22c55e" stroke-width="1.6"/><path d="M390,120 C400,172 270,172 280,120" fill="none" stroke="#22c55e" stroke-width="1.6"/><text x="335.0" y="190.0" fill="#c4c9d4" font-size="14" text-anchor="middle" dominant-baseline="middle">fermo</text><rect x="507.0" y="23.0" width="96" height="34" fill="#1b1e26" fill-opacity="1" stroke="#f59e0b" stroke-width="2"/><text x="555.0" y="40.0" fill="#f59e0b" font-size="15" text-anchor="middle" dominant-baseline="middle" font-family="'Times New Roman', 'STIX Two Math', Georgia, serif" font-style="italic">i ≠ 0 A</text><line x1="460.0" y1="40.0" x2="507.0" y2="40.0" stroke="#f59e0b" stroke-width="2" stroke-linecap="round"/><line x1="603.0" y1="40.0" x2="650.0" y2="40.0" stroke="#f59e0b" stroke-width="2" stroke-linecap="round"/><line x1="460.0" y1="40.0" x2="460.0" y2="150.0" stroke="#f59e0b" stroke-width="2" stroke-linecap="round"/><line x1="650.0" y1="40.0" x2="650.0" y2="150.0" stroke="#f59e0b" stroke-width="2" stroke-linecap="round"/><line x1="460.0" y1="150.0" x2="490.0" y2="150.0" stroke="#f59e0b" stroke-width="2" stroke-linecap="round"/><line x1="620.0" y1="150.0" x2="650.0" y2="150.0" stroke="#f59e0b" stroke-width="2" stroke-linecap="round"/><ellipse cx="497.22222222222223" cy="150" rx="10.833333333333334" ry="27.0" fill="none" fill-opacity="1" stroke="#c4c9d4" stroke-width="2"/><ellipse cx="511.6666666666667" cy="150" rx="10.833333333333334" ry="27.0" fill="none" fill-opacity="1" stroke="#c4c9d4" stroke-width="2"/><ellipse cx="526.1111111111111" cy="150" rx="10.833333333333334" ry="27.0" fill="none" fill-opacity="1" stroke="#c4c9d4" stroke-width="2"/><ellipse cx="540.5555555555555" cy="150" rx="10.833333333333334" ry="27.0" fill="none" fill-opacity="1" stroke="#c4c9d4" stroke-width="2"/><ellipse cx="555.0" cy="150" rx="10.833333333333334" ry="27.0" fill="none" fill-opacity="1" stroke="#c4c9d4" stroke-width="2"/><ellipse cx="569.4444444444445" cy="150" rx="10.833333333333334" ry="27.0" fill="none" fill-opacity="1" stroke="#c4c9d4" stroke-width="2"/><ellipse cx="583.8888888888889" cy="150" rx="10.833333333333334" ry="27.0" fill="none" fill-opacity="1" stroke="#c4c9d4" stroke-width="2"/><ellipse cx="598.3333333333334" cy="150" rx="10.833333333333334" ry="27.0" fill="none" fill-opacity="1" stroke="#c4c9d4" stroke-width="2"/><ellipse cx="612.7777777777778" cy="150" rx="10.833333333333334" ry="27.0" fill="none" fill-opacity="1" stroke="#c4c9d4" stroke-width="2"/><path d="M460.0,100.0 L455.7,91.0 L464.3,91.0 Z" fill="#f59e0b"/><path d="M650.0,100.0 L654.3,109.0 L645.7,109.0 Z" fill="#f59e0b"/><rect x="710" y="105.0" width="55.0" height="30" fill="#3b82f6" fill-opacity="0.85" stroke="#3b82f6" stroke-width="2"/><text x="737.5" y="120.0" fill="#fff" font-size="14" text-anchor="middle" dominant-baseline="middle" font-weight="600">N</text><rect x="765.0" y="105.0" width="55.0" height="30" fill="#ef4444" fill-opacity="0.85" stroke="#ef4444" stroke-width="2"/><text x="792.5" y="120.0" fill="#fff" font-size="14" text-anchor="middle" dominant-baseline="middle" font-weight="600">S</text><path d="M820,120 C830,92 700,92 710,120" fill="none" stroke="#22c55e" stroke-width="1.6"/><path d="M820,120 C830,148 700,148 710,120" fill="none" stroke="#22c55e" stroke-width="1.6"/><path d="M820,120 C830,68 700,68 710,120" fill="none" stroke="#22c55e" stroke-width="1.6"/><path d="M820,120 C830,172 700,172 710,120" fill="none" stroke="#22c55e" stroke-width="1.6"/><line x1="700.0" y1="100.0" x2="680.0" y2="100.0" stroke="#f59e0b" stroke-width="2.5" stroke-linecap="round" marker-end="url(#ff59e0b)"/><line x1="822.0" y1="100.0" x2="842.0" y2="100.0" stroke="#f59e0b" stroke-width="2.5" stroke-linecap="round" marker-end="url(#ff59e0b)"/><text x="765.0" y="190.0" fill="#f59e0b" font-size="14" text-anchor="middle" dominant-baseline="middle">in movimento</text></svg>
