<svg xmlns="http://www.w3.org/2000/svg" viewBox="0 0 640 330" width="640" height="330" font-family="ui-sans-serif, system-ui, -apple-system, 'Segoe UI', sans-serif"><defs><marker id="f8b93a1" viewBox="0 0 10 10" refX="9" refY="5" markerWidth="7" markerHeight="7" orient="auto-start-reverse"><path d="M0,0 L10,5 L0,10 z" fill="#8b93a1"/></marker><marker id="f3b82f6" viewBox="0 0 10 10" refX="9" refY="5" markerWidth="7" markerHeight="7" orient="auto-start-reverse"><path d="M0,0 L10,5 L0,10 z" fill="#3b82f6"/></marker><marker id="fef4444" viewBox="0 0 10 10" refX="9" refY="5" markerWidth="7" markerHeight="7" orient="auto-start-reverse"><path d="M0,0 L10,5 L0,10 z" fill="#ef4444"/></marker><marker id="f22c55e" viewBox="0 0 10 10" refX="9" refY="5" markerWidth="7" markerHeight="7" orient="auto-start-reverse"><path d="M0,0 L10,5 L0,10 z" fill="#22c55e"/></marker><marker id="ff59e0b" viewBox="0 0 10 10" refX="9" refY="5" markerWidth="7" markerHeight="7" orient="auto-start-reverse"><path d="M0,0 L10,5 L0,10 z" fill="#f59e0b"/></marker><marker id="fa855f7" viewBox="0 0 10 10" refX="9" refY="5" markerWidth="7" markerHeight="7" orient="auto-start-reverse"><path d="M0,0 L10,5 L0,10 z" fill="#a855f7"/></marker><marker id="fec4899" viewBox="0 0 10 10" refX="9" refY="5" markerWidth="7" markerHeight="7" orient="auto-start-reverse"><path d="M0,0 L10,5 L0,10 z" fill="#ec4899"/></marker><marker id="f14b8a6" viewBox="0 0 10 10" refX="9" refY="5" markerWidth="7" markerHeight="7" orient="auto-start-reverse"><path d="M0,0 L10,5 L0,10 z" fill="#14b8a6"/></marker><marker id="fc4c9d4" viewBox="0 0 10 10" refX="9" refY="5" markerWidth="7" markerHeight="7" orient="auto-start-reverse"><path d="M0,0 L10,5 L0,10 z" fill="#c4c9d4"/></marker></defs><rect x="125" y="20" width="50" height="40" fill="#3b82f6" fill-opacity="0.85" stroke="#3b82f6" stroke-width="2"/><text x="150.0" y="40.0" fill="#fff" font-size="16" text-anchor="middle" dominant-baseline="middle" font-weight="600">S</text><rect x="125" y="60" width="50" height="40" fill="#ef4444" fill-opacity="0.85" stroke="#ef4444" stroke-width="2"/><text x="150.0" y="80.0" fill="#fff" font-size="16" text-anchor="middle" dominant-baseline="middle" font-weight="600">N</text><line x1="200.0" y1="30.0" x2="200.0" y2="92.0" stroke="#f59e0b" stroke-width="2.5" stroke-linecap="round" marker-end="url(#ff59e0b)"/><text x="232.0" y="40.0" fill="#f59e0b" font-size="13" text-anchor="start" dominant-baseline="middle">si avvicina</text><line x1="132.0" y1="102.0" x2="132.0" y2="290.0" stroke="#22c55e" stroke-width="2" stroke-linecap="round"/><path d="M132.0,240.0 L128.1,231.9 L135.9,231.9 Z" fill="#22c55e"/><line x1="150.0" y1="102.0" x2="150.0" y2="290.0" stroke="#22c55e" stroke-width="2" stroke-linecap="round"/><path d="M150.0,240.0 L146.1,231.9 L153.9,231.9 Z" fill="#22c55e"/><line x1="168.0" y1="102.0" x2="168.0" y2="290.0" stroke="#22c55e" stroke-width="2" stroke-linecap="round"/><path d="M168.0,240.0 L164.1,231.9 L171.9,231.9 Z" fill="#22c55e"/><ellipse cx="150" cy="205" rx="120" ry="30" fill="none" fill-opacity="1" stroke="#c4c9d4" stroke-width="2.5"/><line x1="60.0" y1="140.0" x2="60.0" y2="270.0" stroke="#a855f7" stroke-width="2.2" stroke-linecap="round" marker-end="url(#fa855f7)"/><line x1="240.0" y1="140.0" x2="240.0" y2="270.0" stroke="#a855f7" stroke-width="2.2" stroke-linecap="round" marker-end="url(#fa855f7)"/><path d="M150.0,235.0 L160.8,229.8 L160.8,240.2 Z" fill="#a855f7"/><text x="186.0" y="254.0" fill="#a855f7" font-size="15" text-anchor="middle" dominant-baseline="middle" font-family="'Times New Roman', 'STIX Two Math', Georgia, serif" font-style="italic">i<tspan baseline-shift="sub" font-size="70%">ind</tspan></text><text x="280.0" y="140.0" fill="#a855f7" font-size="15" text-anchor="end" dominant-baseline="middle" font-family="'Times New Roman', 'STIX Two Math', Georgia, serif" font-style="italic">B⃗<tspan baseline-shift="sub" font-size="70%">indotto</tspan></text><text x="150.0" y="312.0" fill="#a855f7" font-size="14" text-anchor="middle" dominant-baseline="middle">✗ rinforza la variazione</text><rect x="455" y="20" width="50" height="40" fill="#3b82f6" fill-opacity="0.85" stroke="#3b82f6" stroke-width="2"/><text x="480.0" y="40.0" fill="#fff" font-size="16" text-anchor="middle" dominant-baseline="middle" font-weight="600">S</text><rect x="455" y="60" width="50" height="40" fill="#ef4444" fill-opacity="0.85" stroke="#ef4444" stroke-width="2"/><text x="480.0" y="80.0" fill="#fff" font-size="16" text-anchor="middle" dominant-baseline="middle" font-weight="600">N</text><line x1="530.0" y1="30.0" x2="530.0" y2="92.0" stroke="#f59e0b" stroke-width="2.5" stroke-linecap="round" marker-end="url(#ff59e0b)"/><text x="562.0" y="40.0" fill="#f59e0b" font-size="13" text-anchor="start" dominant-baseline="middle">si avvicina</text><line x1="462.0" y1="102.0" x2="462.0" y2="290.0" stroke="#22c55e" stroke-width="2" stroke-linecap="round"/><path d="M462.0,240.0 L458.1,231.9 L465.9,231.9 Z" fill="#22c55e"/><line x1="480.0" y1="102.0" x2="480.0" y2="290.0" stroke="#22c55e" stroke-width="2" stroke-linecap="round"/><path d="M480.0,240.0 L476.1,231.9 L483.9,231.9 Z" fill="#22c55e"/><line x1="498.0" y1="102.0" x2="498.0" y2="290.0" stroke="#22c55e" stroke-width="2" stroke-linecap="round"/><path d="M498.0,240.0 L494.1,231.9 L501.9,231.9 Z" fill="#22c55e"/><ellipse cx="480" cy="205" rx="120" ry="30" fill="none" fill-opacity="1" stroke="#c4c9d4" stroke-width="2.5"/><line x1="390.0" y1="270.0" x2="390.0" y2="140.0" stroke="#f59e0b" stroke-width="2.2" stroke-linecap="round" marker-end="url(#ff59e0b)"/><line x1="570.0" y1="270.0" x2="570.0" y2="140.0" stroke="#f59e0b" stroke-width="2.2" stroke-linecap="round" marker-end="url(#ff59e0b)"/><path d="M480.0,235.0 L469.2,240.2 L469.2,229.8 Z" fill="#f59e0b"/><text x="516.0" y="254.0" fill="#f59e0b" font-size="15" text-anchor="middle" dominant-baseline="middle" font-family="'Times New Roman', 'STIX Two Math', Georgia, serif" font-style="italic">i<tspan baseline-shift="sub" font-size="70%">ind</tspan></text><text x="610.0" y="140.0" fill="#f59e0b" font-size="15" text-anchor="end" dominant-baseline="middle" font-family="'Times New Roman', 'STIX Two Math', Georgia, serif" font-style="italic">B⃗<tspan baseline-shift="sub" font-size="70%">indotto</tspan></text><text x="480.0" y="312.0" fill="#f59e0b" font-size="14" text-anchor="middle" dominant-baseline="middle">✓ si oppone alla variazione</text></svg>
