<svg xmlns="http://www.w3.org/2000/svg" viewBox="0 0 360 320" width="360" height="320" font-family="ui-sans-serif, system-ui, -apple-system, 'Segoe UI', sans-serif"><defs><marker id="f8b93a1" viewBox="0 0 10 10" refX="9" refY="5" markerWidth="7" markerHeight="7" orient="auto-start-reverse"><path d="M0,0 L10,5 L0,10 z" fill="#8b93a1"/></marker><marker id="f3b82f6" viewBox="0 0 10 10" refX="9" refY="5" markerWidth="7" markerHeight="7" orient="auto-start-reverse"><path d="M0,0 L10,5 L0,10 z" fill="#3b82f6"/></marker><marker id="fef4444" viewBox="0 0 10 10" refX="9" refY="5" markerWidth="7" markerHeight="7" orient="auto-start-reverse"><path d="M0,0 L10,5 L0,10 z" fill="#ef4444"/></marker><marker id="f22c55e" viewBox="0 0 10 10" refX="9" refY="5" markerWidth="7" markerHeight="7" orient="auto-start-reverse"><path d="M0,0 L10,5 L0,10 z" fill="#22c55e"/></marker><marker id="ff59e0b" viewBox="0 0 10 10" refX="9" refY="5" markerWidth="7" markerHeight="7" orient="auto-start-reverse"><path d="M0,0 L10,5 L0,10 z" fill="#f59e0b"/></marker><marker id="fa855f7" viewBox="0 0 10 10" refX="9" refY="5" markerWidth="7" markerHeight="7" orient="auto-start-reverse"><path d="M0,0 L10,5 L0,10 z" fill="#a855f7"/></marker><marker id="fec4899" viewBox="0 0 10 10" refX="9" refY="5" markerWidth="7" markerHeight="7" orient="auto-start-reverse"><path d="M0,0 L10,5 L0,10 z" fill="#ec4899"/></marker><marker id="f14b8a6" viewBox="0 0 10 10" refX="9" refY="5" markerWidth="7" markerHeight="7" orient="auto-start-reverse"><path d="M0,0 L10,5 L0,10 z" fill="#14b8a6"/></marker><marker id="fc4c9d4" viewBox="0 0 10 10" refX="9" refY="5" markerWidth="7" markerHeight="7" orient="auto-start-reverse"><path d="M0,0 L10,5 L0,10 z" fill="#c4c9d4"/></marker></defs><circle cx="150" cy="190" r="110" fill="none" stroke="#ef4444" stroke-width="2" stroke-dasharray="6 5"/><line x1="150.0" y1="190.0" x2="150.0" y2="80.0" stroke="#c4c9d4" stroke-width="1.4" stroke-linecap="round" stroke-dasharray="4 4"/><text x="164.0" y="140.0" fill="#8b93a1" font-size="17" text-anchor="middle" dominant-baseline="middle" font-family="'Times New Roman', 'STIX Two Math', Georgia, serif" font-style="italic">R</text><circle cx="150.0" cy="190.0" r="3" fill="#c4c9d4"/><circle cx="150" cy="80" r="11" fill="#c4c9d4" fill-opacity="0.35" stroke="#c4c9d4" stroke-width="2"/><text x="126.0" y="66.0" fill="#8b93a1" font-size="15" text-anchor="middle" dominant-baseline="middle">q, m</text><line x1="161.0" y1="80.0" x2="240.0" y2="80.0" stroke="#c4c9d4" stroke-width="3" stroke-linecap="round" marker-end="url(#fc4c9d4)"/><text x="232.0" y="62.0" fill="#8b93a1" font-size="17" text-anchor="middle" dominant-baseline="middle" font-family="'Times New Roman', 'STIX Two Math', Georgia, serif" font-style="italic">v⃗</text><line x1="150.0" y1="92.0" x2="150.0" y2="140.0" stroke="#3b82f6" stroke-width="3" stroke-linecap="round" marker-end="url(#f3b82f6)"/><text x="172.0" y="120.0" fill="#3b82f6" font-size="16" text-anchor="middle" dominant-baseline="middle" font-family="'Times New Roman', 'STIX Two Math', Georgia, serif" font-style="italic">F⃗<tspan baseline-shift="sub" font-size="70%">L</tspan></text><circle cx="300" cy="60" r="9" fill="none" stroke="#22c55e" stroke-width="2"/><circle cx="300.0" cy="60.0" r="2.5" fill="#22c55e"/><text x="326.0" y="60.0" fill="#22c55e" font-size="18" text-anchor="middle" dominant-baseline="middle" font-family="'Times New Roman', 'STIX Two Math', Georgia, serif" font-style="italic">B⃗</text></svg>
