<svg xmlns="http://www.w3.org/2000/svg" viewBox="0 0 580 290" width="580" height="290" font-family="ui-sans-serif, system-ui, -apple-system, 'Segoe UI', sans-serif"><defs><marker id="f8b93a1" viewBox="0 0 10 10" refX="9" refY="5" markerWidth="7" markerHeight="7" orient="auto-start-reverse"><path d="M0,0 L10,5 L0,10 z" fill="#8b93a1"/></marker><marker id="f3b82f6" viewBox="0 0 10 10" refX="9" refY="5" markerWidth="7" markerHeight="7" orient="auto-start-reverse"><path d="M0,0 L10,5 L0,10 z" fill="#3b82f6"/></marker><marker id="fef4444" viewBox="0 0 10 10" refX="9" refY="5" markerWidth="7" markerHeight="7" orient="auto-start-reverse"><path d="M0,0 L10,5 L0,10 z" fill="#ef4444"/></marker><marker id="f22c55e" viewBox="0 0 10 10" refX="9" refY="5" markerWidth="7" markerHeight="7" orient="auto-start-reverse"><path d="M0,0 L10,5 L0,10 z" fill="#22c55e"/></marker><marker id="ff59e0b" viewBox="0 0 10 10" refX="9" refY="5" markerWidth="7" markerHeight="7" orient="auto-start-reverse"><path d="M0,0 L10,5 L0,10 z" fill="#f59e0b"/></marker><marker id="fa855f7" viewBox="0 0 10 10" refX="9" refY="5" markerWidth="7" markerHeight="7" orient="auto-start-reverse"><path d="M0,0 L10,5 L0,10 z" fill="#a855f7"/></marker><marker id="fec4899" viewBox="0 0 10 10" refX="9" refY="5" markerWidth="7" markerHeight="7" orient="auto-start-reverse"><path d="M0,0 L10,5 L0,10 z" fill="#ec4899"/></marker><marker id="f14b8a6" viewBox="0 0 10 10" refX="9" refY="5" markerWidth="7" markerHeight="7" orient="auto-start-reverse"><path d="M0,0 L10,5 L0,10 z" fill="#14b8a6"/></marker><marker id="fc4c9d4" viewBox="0 0 10 10" refX="9" refY="5" markerWidth="7" markerHeight="7" orient="auto-start-reverse"><path d="M0,0 L10,5 L0,10 z" fill="#c4c9d4"/></marker></defs><circle cx="60" cy="200" r="26" fill="#f59e0b"/><circle cx="520" cy="200" r="26" fill="#f59e0b"/><line x1="40.0" y1="260.0" x2="540.0" y2="260.0" stroke="#c4c9d4" stroke-width="1.4" stroke-linecap="round"/><text x="170.0" y="278.0" fill="#c4c9d4" font-size="13" text-anchor="middle" dominant-baseline="middle">10 m</text><text x="410.0" y="278.0" fill="#c4c9d4" font-size="13" text-anchor="middle" dominant-baseline="middle">10 m</text><g opacity="1"><circle cx="290" cy="192" r="11" fill="none" stroke="#c4c9d4" stroke-width="2"/><line x1="290.0" y1="203.0" x2="290.0" y2="228.0" stroke="#c4c9d4" stroke-width="2" stroke-linecap="round"/><line x1="276.0" y1="212.0" x2="304.0" y2="212.0" stroke="#c4c9d4" stroke-width="2" stroke-linecap="round"/><line x1="290.0" y1="228.0" x2="280.0" y2="250.0" stroke="#c4c9d4" stroke-width="2" stroke-linecap="round"/><line x1="290.0" y1="228.0" x2="300.0" y2="250.0" stroke="#c4c9d4" stroke-width="2" stroke-linecap="round"/></g><path d="M86.0,200.0 L87.5,201.8 L89.1,203.2 L90.6,204.0 L92.1,203.8 L93.7,202.8 L95.2,201.2 L96.7,199.4 L98.3,197.6 L99.8,196.4 L101.3,196.0 L102.9,196.4 L104.4,197.6 L105.9,199.4 L107.5,201.2 L109.0,202.8 L110.5,203.8 L112.1,204.0 L113.6,203.2 L115.1,201.8 L116.7,200.0 L118.2,198.2 L119.7,196.8 L121.3,196.0 L122.8,196.2 L124.3,197.2 L125.9,198.8 L127.4,200.6 L128.9,202.4 L130.5,203.6 L132.0,204.0 L133.5,203.6 L135.1,202.4 L136.6,200.6 L138.1,198.8 L139.7,197.2 L141.2,196.2 L142.7,196.0 L144.3,196.8 L145.8,198.2 L147.3,200.0 L148.9,201.8 L150.4,203.2 L151.9,204.0 L153.5,203.8 L155.0,202.8 L156.5,201.2 L158.1,199.4 L159.6,197.6 L161.1,196.4 L162.7,196.0 L164.2,196.4 L165.7,197.6 L167.3,199.4 L168.8,201.2 L170.3,202.8 L171.9,203.8 L173.4,204.0 L174.9,203.2 L176.5,201.8 L178.0,200.0 L179.5,198.2 L181.1,196.8 L182.6,196.0 L184.1,196.2 L185.7,197.2 L187.2,198.8 L188.7,200.6 L190.3,202.4 L191.8,203.6 L193.3,204.0 L194.9,203.6 L196.4,202.4 L197.9,200.6 L199.5,198.8 L201.0,197.2 L202.5,196.2 L204.1,196.0 L205.6,196.8 L207.1,198.2 L208.7,200.0 L210.2,201.8 L211.7,203.2 L213.3,204.0 L214.8,203.8 L216.3,202.8 L217.9,201.2 L219.4,199.4 L220.9,197.6 L222.5,196.4 L224.0,196.0 L225.5,196.4 L227.1,197.6 L228.6,199.4 L230.1,201.2 L231.7,202.8 L233.2,203.8 L234.7,204.0 L236.3,203.2 L237.8,201.8 L239.3,200.0 L240.9,198.2 L242.4,196.8 L243.9,196.0 L245.5,196.2 L247.0,197.2 L248.5,198.8 L250.1,200.6 L251.6,202.4 L253.1,203.3 L254.7,203.3 L256.2,202.7 L257.7,201.6 L259.3,200.4 L260.8,199.4 L262.3,198.8 L263.9,198.7 L265.4,199.0 L266.9,199.5 L268.5,199.8 L270.0,200.0" fill="none" stroke="#f59e0b" stroke-width="2.2"/><path d="M494.0,200.0 L492.5,198.2 L490.9,196.8 L489.4,196.0 L487.9,196.2 L486.3,197.2 L484.8,198.8 L483.3,200.6 L481.7,202.4 L480.2,203.6 L478.7,204.0 L477.1,203.6 L475.6,202.4 L474.1,200.6 L472.5,198.8 L471.0,197.2 L469.5,196.2 L467.9,196.0 L466.4,196.8 L464.9,198.2 L463.3,200.0 L461.8,201.8 L460.3,203.2 L458.7,204.0 L457.2,203.8 L455.7,202.8 L454.1,201.2 L452.6,199.4 L451.1,197.6 L449.5,196.4 L448.0,196.0 L446.5,196.4 L444.9,197.6 L443.4,199.4 L441.9,201.2 L440.3,202.8 L438.8,203.8 L437.3,204.0 L435.7,203.2 L434.2,201.8 L432.7,200.0 L431.1,198.2 L429.6,196.8 L428.1,196.0 L426.5,196.2 L425.0,197.2 L423.5,198.8 L421.9,200.6 L420.4,202.4 L418.9,203.6 L417.3,204.0 L415.8,203.6 L414.3,202.4 L412.7,200.6 L411.2,198.8 L409.7,197.2 L408.1,196.2 L406.6,196.0 L405.1,196.8 L403.5,198.2 L402.0,200.0 L400.5,201.8 L398.9,203.2 L397.4,204.0 L395.9,203.8 L394.3,202.8 L392.8,201.2 L391.3,199.4 L389.7,197.6 L388.2,196.4 L386.7,196.0 L385.1,196.4 L383.6,197.6 L382.1,199.4 L380.5,201.2 L379.0,202.8 L377.5,203.8 L375.9,204.0 L374.4,203.2 L372.9,201.8 L371.3,200.0 L369.8,198.2 L368.3,196.8 L366.7,196.0 L365.2,196.2 L363.7,197.2 L362.1,198.8 L360.6,200.6 L359.1,202.4 L357.5,203.6 L356.0,204.0 L354.5,203.6 L352.9,202.4 L351.4,200.6 L349.9,198.8 L348.3,197.2 L346.8,196.2 L345.3,196.0 L343.7,196.8 L342.2,198.2 L340.7,200.0 L339.1,201.8 L337.6,203.2 L336.1,204.0 L334.5,203.8 L333.0,202.8 L331.5,201.2 L329.9,199.4 L328.4,197.6 L326.9,196.7 L325.3,196.7 L323.8,197.3 L322.3,198.4 L320.7,199.6 L319.2,200.6 L317.7,201.2 L316.1,201.3 L314.6,201.0 L313.1,200.5 L311.5,200.2 L310.0,200.0" fill="none" stroke="#f59e0b" stroke-width="2.2"/><g opacity="1"><rect x="185" y="40" width="210" height="100" fill="none" fill-opacity="1" stroke="#c4c9d4" stroke-width="2"/><circle cx="207" cy="152" r="11" fill="none" stroke="#c4c9d4" stroke-width="2"/><circle cx="231" cy="152" r="11" fill="none" stroke="#c4c9d4" stroke-width="2"/><circle cx="349" cy="152" r="11" fill="none" stroke="#c4c9d4" stroke-width="2"/><circle cx="373" cy="152" r="11" fill="none" stroke="#c4c9d4" stroke-width="2"/></g><g opacity="1"><circle cx="290" cy="82" r="11" fill="none" stroke="#c4c9d4" stroke-width="2"/><line x1="290.0" y1="93.0" x2="290.0" y2="118.0" stroke="#c4c9d4" stroke-width="2" stroke-linecap="round"/><line x1="276.0" y1="102.0" x2="304.0" y2="102.0" stroke="#c4c9d4" stroke-width="2" stroke-linecap="round"/><line x1="290.0" y1="118.0" x2="280.0" y2="140.0" stroke="#c4c9d4" stroke-width="2" stroke-linecap="round"/><line x1="290.0" y1="118.0" x2="300.0" y2="140.0" stroke="#c4c9d4" stroke-width="2" stroke-linecap="round"/></g><path d="M80.0,182.0 L82.3,182.9 L84.5,183.5 L86.4,183.4 L87.9,182.6 L89.1,181.0 L90.0,178.8 L90.8,176.4 L91.7,174.1 L92.8,172.3 L94.2,171.2 L95.9,170.9 L98.0,171.3 L100.3,172.1 L102.7,173.1 L104.9,173.8 L106.9,174.0 L108.5,173.4 L109.8,172.0 L110.8,170.0 L111.7,167.7 L112.5,165.3 L113.5,163.3 L114.8,161.9 L116.4,161.3 L118.4,161.5 L120.7,162.2 L123.0,163.2 L125.3,164.1 L127.4,164.5 L129.1,164.1 L130.6,163.0 L131.6,161.2 L132.5,158.9 L133.3,156.5 L134.3,154.3 L135.4,152.7 L137.0,151.9 L138.8,151.8 L141.0,152.4 L143.3,153.3 L145.7,154.3 L147.8,154.8 L149.7,154.8 L151.2,153.9 L152.4,152.3 L153.3,150.2 L154.2,147.7 L155.0,145.5 L156.1,143.6 L157.5,142.5 L159.3,142.2 L161.4,142.6 L163.7,143.4 L166.0,144.4 L168.2,145.2 L170.2,145.3 L171.9,144.7 L173.2,143.4 L174.2,141.4 L175.0,139.0 L175.8,136.6 L176.8,134.6 L178.1,133.3 L179.8,132.7 L181.8,132.8 L184.0,133.6 L186.3,134.6 L188.6,135.4 L190.7,135.8 L192.5,135.5 L193.9,134.4 L195.0,132.5 L195.8,130.3 L196.7,127.8 L197.6,125.7 L198.8,124.1 L200.3,123.2 L202.2,123.2 L204.3,123.7 L206.7,124.7 L209.0,125.6 L211.2,126.2 L213.0,126.1 L214.6,125.3 L215.7,123.7 L216.7,121.5 L217.5,119.1 L218.4,116.8 L219.4,115.0 L220.9,113.9 L222.6,113.5 L224.7,113.9 L227.0,114.8 L229.3,115.8 L231.6,116.5 L233.6,116.7 L235.2,116.1 L236.5,114.7 L237.5,112.7 L238.3,110.3 L239.2,108.0 L240.2,106.0 L241.5,104.6 L243.1,104.0 L245.1,104.2 L247.3,104.9 L249.7,105.9 L252.0,106.7 L253.9,106.9 L255.5,106.2 L256.9,104.9 L258.0,103.2 L259.1,101.3 L260.2,99.7 L261.6,98.5 L263.1,97.7 L264.8,97.3 L266.6,96.9 L268.4,96.6 L270.0,96.0" fill="none" stroke="#f59e0b" stroke-width="2.2"/><path d="M500.0,182.0 L499.2,179.6 L498.2,177.6 L496.9,176.3 L495.2,175.7 L493.2,175.8 L491.0,176.6 L488.7,177.6 L486.4,178.4 L484.3,178.8 L482.5,178.5 L481.1,177.4 L480.0,175.5 L479.2,173.3 L478.3,170.8 L477.4,168.7 L476.2,167.1 L474.7,166.2 L472.8,166.2 L470.7,166.7 L468.3,167.7 L466.0,168.6 L463.8,169.2 L462.0,169.1 L460.4,168.3 L459.3,166.7 L458.3,164.5 L457.5,162.1 L456.6,159.8 L455.6,158.0 L454.1,156.9 L452.4,156.5 L450.3,156.9 L448.0,157.8 L445.7,158.8 L443.4,159.5 L441.4,159.7 L439.8,159.1 L438.5,157.7 L437.5,155.7 L436.7,153.3 L435.8,151.0 L434.8,149.0 L433.5,147.6 L431.9,147.0 L429.9,147.2 L427.7,147.9 L425.3,148.9 L423.0,149.7 L420.9,150.1 L419.2,149.8 L417.8,148.7 L416.7,146.9 L415.8,144.6 L415.0,142.2 L414.1,140.0 L412.9,138.4 L411.4,137.6 L409.5,137.5 L407.3,138.1 L405.0,139.0 L402.7,139.9 L400.5,140.5 L398.6,140.4 L397.1,139.6 L395.9,138.0 L395.0,135.8 L394.2,133.4 L393.3,131.1 L392.2,129.3 L390.8,128.2 L389.1,127.9 L387.0,128.3 L384.7,129.1 L382.3,130.1 L380.1,130.8 L378.1,131.0 L376.5,130.4 L375.2,129.0 L374.2,127.0 L373.3,124.7 L372.5,122.3 L371.5,120.3 L370.2,118.9 L368.6,118.3 L366.6,118.5 L364.3,119.2 L362.0,120.2 L359.7,121.1 L357.6,121.5 L355.9,121.1 L354.4,120.0 L353.4,118.2 L352.5,115.9 L351.7,113.5 L350.7,111.3 L349.6,109.7 L348.0,108.9 L346.2,108.8 L344.0,109.4 L341.7,110.3 L339.3,111.3 L337.2,111.8 L335.3,111.8 L333.8,110.9 L332.6,109.3 L331.7,107.2 L330.8,104.7 L330.0,102.5 L328.8,100.9 L327.2,100.1 L325.4,100.0 L323.3,100.3 L321.2,100.7 L319.2,100.9 L317.4,100.7 L315.8,100.0 L314.3,99.0 L312.9,97.9 L311.5,96.9 L310.0,96.0" fill="none" stroke="#f59e0b" stroke-width="2.2"/></svg>
