<svg xmlns="http://www.w3.org/2000/svg" viewBox="0 0 690 240" width="690" height="240" font-family="ui-sans-serif, system-ui, -apple-system, 'Segoe UI', sans-serif"><defs><marker id="f8b93a1" viewBox="0 0 10 10" refX="9" refY="5" markerWidth="7" markerHeight="7" orient="auto-start-reverse"><path d="M0,0 L10,5 L0,10 z" fill="#8b93a1"/></marker><marker id="f3b82f6" viewBox="0 0 10 10" refX="9" refY="5" markerWidth="7" markerHeight="7" orient="auto-start-reverse"><path d="M0,0 L10,5 L0,10 z" fill="#3b82f6"/></marker><marker id="fef4444" viewBox="0 0 10 10" refX="9" refY="5" markerWidth="7" markerHeight="7" orient="auto-start-reverse"><path d="M0,0 L10,5 L0,10 z" fill="#ef4444"/></marker><marker id="f22c55e" viewBox="0 0 10 10" refX="9" refY="5" markerWidth="7" markerHeight="7" orient="auto-start-reverse"><path d="M0,0 L10,5 L0,10 z" fill="#22c55e"/></marker><marker id="ff59e0b" viewBox="0 0 10 10" refX="9" refY="5" markerWidth="7" markerHeight="7" orient="auto-start-reverse"><path d="M0,0 L10,5 L0,10 z" fill="#f59e0b"/></marker><marker id="fa855f7" viewBox="0 0 10 10" refX="9" refY="5" markerWidth="7" markerHeight="7" orient="auto-start-reverse"><path d="M0,0 L10,5 L0,10 z" fill="#a855f7"/></marker><marker id="fec4899" viewBox="0 0 10 10" refX="9" refY="5" markerWidth="7" markerHeight="7" orient="auto-start-reverse"><path d="M0,0 L10,5 L0,10 z" fill="#ec4899"/></marker><marker id="f14b8a6" viewBox="0 0 10 10" refX="9" refY="5" markerWidth="7" markerHeight="7" orient="auto-start-reverse"><path d="M0,0 L10,5 L0,10 z" fill="#14b8a6"/></marker><marker id="fc4c9d4" viewBox="0 0 10 10" refX="9" refY="5" markerWidth="7" markerHeight="7" orient="auto-start-reverse"><path d="M0,0 L10,5 L0,10 z" fill="#c4c9d4"/></marker></defs><line x1="30.0" y1="200.0" x2="200.0" y2="200.0" stroke="#c4c9d4" stroke-width="2" stroke-linecap="round" marker-end="url(#fc4c9d4)"/><line x1="30.0" y1="200.0" x2="30.0" y2="30.0" stroke="#c4c9d4" stroke-width="2" stroke-linecap="round" marker-end="url(#fc4c9d4)"/><text x="30.0" y="18.0" fill="#c4c9d4" font-size="15" text-anchor="middle" dominant-baseline="middle" font-family="'Times New Roman', 'STIX Two Math', Georgia, serif" font-style="italic">S</text><line x1="120.0" y1="130.0" x2="250.0" y2="130.0" stroke="#c4c9d4" stroke-width="2" stroke-linecap="round" marker-end="url(#fc4c9d4)"/><line x1="120.0" y1="130.0" x2="120.0" y2="20.0" stroke="#c4c9d4" stroke-width="2" stroke-linecap="round" marker-end="url(#fc4c9d4)"/><text x="120.0" y="12.0" fill="#c4c9d4" font-size="15" text-anchor="middle" dominant-baseline="middle" font-family="'Times New Roman', 'STIX Two Math', Georgia, serif" font-style="italic">S′</text><line x1="120.0" y1="80.0" x2="200.0" y2="80.0" stroke="#22c55e" stroke-width="2.5" stroke-linecap="round" marker-end="url(#f22c55e)"/><text x="190.0" y="64.0" fill="#22c55e" font-size="15" text-anchor="middle" dominant-baseline="middle" font-family="'Times New Roman', 'STIX Two Math', Georgia, serif" font-style="italic">v⃗</text><text x="290.0" y="120.0" fill="#c4c9d4" font-size="30" text-anchor="middle" dominant-baseline="middle">=</text><line x1="400.0" y1="160.0" x2="550.0" y2="160.0" stroke="#c4c9d4" stroke-width="2" stroke-linecap="round" marker-end="url(#fc4c9d4)"/><line x1="400.0" y1="160.0" x2="400.0" y2="10.0" stroke="#c4c9d4" stroke-width="2" stroke-linecap="round" marker-end="url(#fc4c9d4)"/><text x="384.0" y="22.0" fill="#c4c9d4" font-size="15" text-anchor="middle" dominant-baseline="middle" font-family="'Times New Roman', 'STIX Two Math', Georgia, serif" font-style="italic">S</text><line x1="510.0" y1="220.0" x2="660.0" y2="220.0" stroke="#c4c9d4" stroke-width="2" stroke-linecap="round" marker-end="url(#fc4c9d4)"/><line x1="510.0" y1="220.0" x2="510.0" y2="110.0" stroke="#c4c9d4" stroke-width="2" stroke-linecap="round" marker-end="url(#fc4c9d4)"/><text x="510.0" y="104.0" fill="#c4c9d4" font-size="15" text-anchor="middle" dominant-baseline="middle" font-family="'Times New Roman', 'STIX Two Math', Georgia, serif" font-style="italic">S′</text><line x1="400.0" y1="150.0" x2="340.0" y2="150.0" stroke="#22c55e" stroke-width="2.5" stroke-linecap="round" marker-end="url(#f22c55e)"/><text x="348.0" y="134.0" fill="#22c55e" font-size="15" text-anchor="middle" dominant-baseline="middle" font-family="'Times New Roman', 'STIX Two Math', Georgia, serif" font-style="italic">−v⃗</text></svg>
