<svg xmlns="http://www.w3.org/2000/svg" viewBox="0 0 450 320" width="450" height="320" font-family="ui-sans-serif, system-ui, -apple-system, 'Segoe UI', sans-serif"><defs><marker id="f8b93a1" viewBox="0 0 10 10" refX="9" refY="5" markerWidth="7" markerHeight="7" orient="auto-start-reverse"><path d="M0,0 L10,5 L0,10 z" fill="#8b93a1"/></marker><marker id="f3b82f6" viewBox="0 0 10 10" refX="9" refY="5" markerWidth="7" markerHeight="7" orient="auto-start-reverse"><path d="M0,0 L10,5 L0,10 z" fill="#3b82f6"/></marker><marker id="fef4444" viewBox="0 0 10 10" refX="9" refY="5" markerWidth="7" markerHeight="7" orient="auto-start-reverse"><path d="M0,0 L10,5 L0,10 z" fill="#ef4444"/></marker><marker id="f22c55e" viewBox="0 0 10 10" refX="9" refY="5" markerWidth="7" markerHeight="7" orient="auto-start-reverse"><path d="M0,0 L10,5 L0,10 z" fill="#22c55e"/></marker><marker id="ff59e0b" viewBox="0 0 10 10" refX="9" refY="5" markerWidth="7" markerHeight="7" orient="auto-start-reverse"><path d="M0,0 L10,5 L0,10 z" fill="#f59e0b"/></marker><marker id="fa855f7" viewBox="0 0 10 10" refX="9" refY="5" markerWidth="7" markerHeight="7" orient="auto-start-reverse"><path d="M0,0 L10,5 L0,10 z" fill="#a855f7"/></marker><marker id="fec4899" viewBox="0 0 10 10" refX="9" refY="5" markerWidth="7" markerHeight="7" orient="auto-start-reverse"><path d="M0,0 L10,5 L0,10 z" fill="#ec4899"/></marker><marker id="f14b8a6" viewBox="0 0 10 10" refX="9" refY="5" markerWidth="7" markerHeight="7" orient="auto-start-reverse"><path d="M0,0 L10,5 L0,10 z" fill="#14b8a6"/></marker></defs><line x1="30.0" y1="170.0" x2="430.0" y2="170.0" stroke="#c4c9d4" stroke-width="1.5" stroke-linecap="round" stroke-dasharray="5 5"/><ellipse cx="140" cy="170" rx="46" ry="125" fill="none" fill-opacity="1" stroke="#f59e0b" stroke-width="3"/><line x1="140.0" y1="170.0" x2="140.0" y2="45.0" stroke="#c4c9d4" stroke-width="1.5" stroke-linecap="round" stroke-dasharray="4 4"/><text x="154.0" y="108.0" fill="#8b93a1" font-size="17" text-anchor="middle" dominant-baseline="middle" font-family="'Times New Roman', 'STIX Two Math', Georgia, serif" font-style="italic">R</text><circle cx="330.0" cy="170.0" r="4" fill="#c4c9d4"/><line x1="330.0" y1="170.0" x2="400.0" y2="170.0" stroke="#22c55e" stroke-width="3" stroke-linecap="round" marker-end="url(#f22c55e)"/><text x="372.0" y="194.0" fill="#22c55e" font-size="18" text-anchor="middle" dominant-baseline="middle" font-family="'Times New Roman', 'STIX Two Math', Georgia, serif" font-style="italic">B⃗</text><text x="236.0" y="188.0" fill="#8b93a1" font-size="17" text-anchor="middle" dominant-baseline="middle" font-family="'Times New Roman', 'STIX Two Math', Georgia, serif" font-style="italic">r</text><path d="M108.0,78.0 L109.8,67.1 L117.6,72.6 Z" fill="#f59e0b"/><text x="84.0" y="60.0" fill="#f59e0b" font-size="18" text-anchor="middle" dominant-baseline="middle" font-family="'Times New Roman', 'STIX Two Math', Georgia, serif" font-style="italic">i</text></svg>
